<svg version="1.1" id="Layer_1" xmlns="http://www.w3.org/2000/svg" xmlns:xlink="http://www.w3.org/1999/xlink" x="0px" y="0px"
	 width="100px" viewBox="0 0 666 375" enable-background="new 0 0 666 375" xml:space="preserve">
<path fill="#000000" opacity="1.000000" stroke="none" 
	d="
M440.000000,376.000000 
	C293.368408,376.000000 147.236816,376.000000 1.052613,376.000000 
	C1.052613,251.065094 1.052613,126.130150 1.052613,1.097607 
	C222.881607,1.097607 444.763275,1.097607 666.822510,1.097607 
	C666.822510,125.999794 666.822510,250.999878 666.822510,376.000000 
	C591.463440,376.000000 515.981689,376.000000 440.000000,376.000000 
M131.938309,122.847702 
	C131.681137,126.229286 131.423950,129.610870 131.023621,133.786514 
	C131.056564,134.859940 131.089523,135.933365 130.962784,137.582016 
	C130.914536,138.411942 130.866287,139.241867 130.930222,140.753647 
	C130.934845,141.444580 130.939453,142.135529 130.465591,143.050186 
	C130.361893,143.356232 130.258209,143.662262 130.023224,144.770401 
	C130.070892,145.849640 130.118546,146.928864 130.032883,148.927765 
	C130.110031,153.273331 130.187180,157.618896 130.037048,162.798401 
	C129.670563,164.030518 129.018890,165.254196 128.982224,166.496048 
	C128.652618,177.658157 128.431046,188.823425 128.038696,200.917862 
	C127.991623,211.923752 127.944550,222.929657 127.188713,234.437836 
	C127.116989,242.918533 127.045265,251.399216 126.221550,259.573486 
	C125.425774,247.377716 124.629997,235.181961 123.989227,222.078568 
	C123.369347,216.931595 122.421753,211.798462 122.203842,206.634537 
	C121.847511,198.190689 122.101738,189.721588 121.776085,181.275558 
	C121.706787,179.478241 120.255890,177.734177 119.441505,175.965576 
	C118.932495,176.037857 118.423485,176.110123 117.914474,176.182404 
	C114.437294,185.203308 114.709076,194.933807 113.694962,204.150528 
	C113.138153,203.729736 112.628639,203.344681 111.976662,202.177490 
	C111.283142,199.733475 110.589615,197.289444 109.896095,194.845428 
	C109.309860,194.843903 108.723618,194.842377 108.137383,194.840851 
	C107.432632,196.453827 106.450729,198.005844 106.079712,199.692245 
	C105.259056,203.422501 104.745575,207.220352 103.997391,211.793594 
	C104.066727,212.867889 104.136063,213.942184 104.063568,215.877090 
	C104.026093,217.910812 103.988617,219.944534 103.238251,222.452194 
	C102.510254,228.585114 101.782257,234.718033 100.990875,239.939529 
	C100.935768,235.289246 100.880661,230.638977 100.957420,225.128494 
	C100.235237,215.093002 99.513054,205.057510 98.946678,194.115387 
	C98.278290,184.622894 97.698776,175.122299 96.835793,165.647537 
	C96.720108,164.377487 95.172729,163.237854 94.288338,162.037827 
	C93.478836,163.169189 92.071815,164.242661 91.955696,165.441208 
	C91.132774,173.935516 90.574356,182.455444 89.307076,191.353867 
	C89.261284,192.563873 89.215492,193.773895 89.024994,195.782562 
	C89.075531,196.860306 89.126060,197.938049 89.054764,199.922012 
	C88.422546,210.273849 87.790329,220.625671 87.018959,231.846375 
	C87.063766,233.894272 87.108574,235.942169 86.689377,238.552475 
	C85.417564,225.702408 84.145760,212.852325 82.823235,199.285049 
	C82.228897,197.822632 81.634567,196.360229 80.975258,194.163254 
	C80.048622,193.323059 79.121986,192.482880 77.658737,191.156158 
	C77.002884,193.724487 76.585030,195.360825 75.800224,197.706253 
	C74.381248,203.810303 72.962273,209.914337 71.414627,216.571915 
	C63.221817,207.495453 63.639202,205.131836 53.823086,215.353012 
	C52.454205,213.646194 51.350899,211.600418 49.653328,210.383881 
	C48.475292,209.539658 45.874252,209.050125 44.952606,209.759003 
	C40.770229,212.975769 36.317272,212.430054 31.795303,211.421127 
	C26.066154,210.142838 17.915125,214.354950 16.228558,220.144882 
	C18.394896,219.489929 20.722506,219.423752 22.113161,218.248688 
	C26.650372,214.414948 31.858551,214.972076 37.129406,215.039825 
	C39.540615,215.070816 41.952740,214.380997 44.377666,214.229111 
	C45.920883,214.132431 48.002357,213.820969 48.960892,214.638901 
	C54.832771,219.649628 54.744553,219.743576 60.262405,214.281403 
	C61.011650,213.539734 61.829517,212.867386 62.854107,211.949188 
	C64.406715,214.218918 65.538216,216.227722 67.020874,217.930832 
	C68.258919,219.352951 69.908226,220.417053 71.375420,221.639694 
	C72.606956,220.041656 74.368378,218.619247 74.967491,216.811600 
	C76.561234,212.003006 77.654068,207.028397 79.001213,202.967911 
	C79.667686,209.095200 80.421089,215.214569 80.979515,221.351685 
	C81.749382,229.812546 82.210251,238.305191 83.169273,246.742645 
	C83.415077,248.905228 85.034874,250.911621 86.132286,253.452148 
	C86.408958,253.295975 86.685631,253.139786 87.627922,252.691986 
	C88.092728,251.130295 88.557533,249.568619 89.673340,247.644272 
	C89.704666,246.419724 89.735992,245.195160 89.914505,243.155396 
	C89.969536,241.777878 90.024574,240.400375 90.788826,238.583176 
	C90.792900,236.046036 90.796982,233.508896 90.916054,230.072922 
	C91.552368,220.386368 92.188683,210.699829 92.976471,200.092438 
	C93.121475,195.063385 93.266479,190.034348 93.411484,185.005295 
	C93.817390,185.034286 94.223297,185.063293 94.629204,185.092285 
	C95.066063,190.069458 95.502922,195.046646 96.029587,200.953842 
	C96.416771,209.401016 96.803955,217.848190 97.040215,227.030869 
	C97.357933,234.014740 97.663605,240.999237 98.026192,247.980774 
	C98.045906,248.360458 98.541252,248.715439 98.958023,249.882019 
	C99.703476,251.872787 100.448929,253.863556 101.194374,255.854324 
	C102.442810,254.200287 104.590736,252.646027 104.787155,250.875305 
	C105.741058,242.275711 106.172005,233.618103 106.935989,224.113708 
	C107.657387,218.799301 108.378784,213.484879 109.784630,208.488190 
	C109.856689,209.310104 109.687782,210.262146 110.047707,210.928589 
	C110.985481,212.665039 112.155128,214.276260 113.232292,215.937424 
	C114.163254,214.459717 115.640503,213.080704 115.928436,211.486832 
	C117.038574,205.341553 117.768593,199.127625 118.640297,192.939285 
	C119.095367,192.935333 119.550430,192.931396 120.005501,192.927444 
	C120.005501,201.603027 119.958603,210.279083 120.045822,218.953781 
	C120.062889,220.650772 120.599792,222.342529 121.004532,224.963837 
	C121.674568,243.098785 122.311478,261.235077 123.043983,279.367493 
	C123.182121,282.786896 123.490646,286.233490 124.167473,289.577087 
	C124.380402,290.628967 126.053139,291.385345 127.057732,292.277008 
	C127.715805,292.053558 128.373886,291.830139 129.031952,291.606720 
	C129.031952,286.074219 129.031952,280.541687 129.755814,274.537231 
	C130.103836,262.016571 130.451859,249.495911 130.918320,236.048233 
	C131.223526,226.693893 131.528732,217.339554 131.957153,207.059662 
	C132.229980,192.029297 132.502808,176.998917 132.936829,161.092957 
	C133.285706,158.079315 133.634598,155.065689 134.046936,152.957184 
	C134.082291,156.282104 134.117645,159.607040 133.996017,163.801010 
	C134.339600,171.846802 134.638382,179.894943 135.057983,187.936768 
	C135.164169,189.971909 135.655731,191.986908 136.035965,194.945129 
	C136.082520,205.633896 136.129059,216.322678 136.050980,227.729477 
	C136.210693,228.814606 136.462097,229.895187 136.516022,230.985550 
	C137.110153,242.998566 137.673584,255.013123 138.117081,267.915833 
	C138.133255,270.609650 138.149414,273.303436 137.994385,276.659882 
	C138.038803,277.112061 138.083206,277.564240 138.005997,278.868927 
	C139.549622,283.143036 136.995056,288.722565 142.680969,292.603699 
	C143.485016,288.672546 144.163971,285.352966 144.998856,281.158386 
	C144.928299,279.091400 144.857758,277.024384 144.893539,274.178406 
	C144.853073,273.133026 144.812607,272.087616 144.952408,270.161316 
	C145.298950,262.412842 145.638016,254.664001 145.993729,246.915939 
	C146.604996,233.601242 147.226654,220.287018 147.948746,206.235107 
	C148.242813,200.826431 148.536896,195.417770 148.977768,189.091660 
	C149.016953,184.791977 149.056137,180.492294 149.802200,176.628769 
	C150.201797,185.757751 150.577393,194.887939 151.034714,204.014023 
	C151.085587,205.029221 151.601608,206.021118 152.057114,207.893524 
	C152.111389,210.246796 152.165680,212.600082 152.025452,215.800278 
	C152.294235,218.217392 152.563019,220.634491 153.002426,223.939316 
	C153.061401,226.956787 153.120377,229.974258 153.090347,233.525909 
	C153.379486,233.719330 153.668625,233.912750 154.055450,234.545120 
	C154.055450,234.545120 154.197037,234.971939 154.040207,235.819504 
	C154.047699,237.469391 153.640320,239.272675 154.177826,240.726608 
	C154.730103,242.220535 156.205078,243.373337 157.276276,244.675415 
	C158.177841,243.492203 159.681717,242.402084 159.881409,241.110367 
	C161.017960,233.758118 161.843292,226.357773 162.921478,218.136856 
	C163.941284,213.783707 164.961090,209.430557 165.989075,205.805923 
	C166.299835,206.879959 166.610580,207.953979 167.031006,209.812531 
	C167.629700,212.304794 167.981750,214.893845 168.909164,217.257095 
	C169.587646,218.986008 170.755402,221.261108 172.203415,221.719894 
	C173.394989,222.097427 175.776901,220.517136 176.814194,219.173676 
	C178.499710,216.990692 179.517471,214.292114 181.030136,211.404419 
	C184.128952,215.374832 187.299683,216.239563 190.819016,213.227798 
	C193.075012,217.944855 195.133774,222.249512 197.437363,227.066116 
	C202.233246,222.413010 203.003387,217.866653 203.229218,212.294434 
	C204.143478,208.560440 205.057739,204.826431 206.020447,201.950394 
	C206.746384,205.976273 207.472305,210.002167 208.065872,214.914047 
	C207.961838,222.347870 209.001373,229.503174 213.089203,236.114044 
	C219.917542,226.503860 217.001190,214.504669 221.231750,203.918915 
	C223.351364,210.526489 222.266830,217.586945 228.243729,222.483643 
	C230.230759,220.121429 231.878250,218.162872 232.905884,216.941208 
	C234.869949,218.086090 236.606186,219.882935 238.262146,219.811768 
	C239.555023,219.756210 241.087097,217.558548 241.908218,215.995163 
	C243.221863,213.494049 244.034378,210.729752 245.152603,207.833557 
	C246.887268,212.119934 248.427322,215.864716 249.918640,219.628799 
	C251.221497,222.917160 253.236649,222.712860 255.086578,220.385132 
	C256.618835,218.457123 257.608612,216.098038 258.849060,213.911728 
	C264.352264,217.707672 265.433716,217.397598 267.756042,211.583054 
	C268.291718,210.241913 268.791901,208.886597 269.342316,207.449280 
	C272.936035,215.565903 270.864502,224.943649 277.281067,232.933426 
	C282.309509,224.716705 282.161377,216.260193 283.110504,207.379562 
	C283.453583,206.823395 283.783966,206.258514 284.153351,205.720398 
	C284.208862,205.639496 284.446503,205.683624 284.538391,205.675400 
	C285.354950,208.251160 286.331055,210.774048 286.948303,213.381866 
	C288.781921,221.128510 290.484070,221.703293 296.299194,216.347168 
	C298.262238,217.637665 300.225281,218.928162 302.846588,220.651398 
	C304.918243,216.591888 306.754761,212.993240 308.650970,209.277557 
	C314.524536,220.265472 314.524536,220.265472 320.731995,215.237885 
	C324.427612,219.580627 327.508850,217.432419 330.390259,214.180298 
	C335.873291,218.029968 336.549286,217.781158 339.777740,210.698318 
	C340.018951,209.601013 340.260193,208.503708 340.784363,206.119232 
	C341.458710,208.374680 341.824585,209.253601 341.978760,210.168198 
	C343.325348,218.156052 344.555267,226.164841 346.029114,234.128693 
	C346.284302,235.507538 347.524994,236.703995 348.310486,237.984695 
	C349.469482,236.792282 351.262573,235.777161 351.655823,234.370651 
	C352.481384,231.417938 352.620056,228.264786 352.953888,225.184525 
	C353.935059,216.130844 354.873840,207.072556 355.966644,197.184982 
	C355.938751,195.782562 355.910889,194.380157 356.093933,192.525558 
	C356.093933,192.525558 356.436829,192.163071 356.436829,192.163071 
	C356.436829,192.163071 356.934418,192.200424 356.952301,192.619064 
	C356.952301,192.619064 357.084167,193.016815 356.957458,193.750854 
	C357.015594,194.488358 357.073730,195.225845 357.060394,196.835724 
	C357.791992,202.505386 358.523621,208.175034 359.255219,213.844696 
	C359.855743,213.837204 360.456238,213.829697 361.056763,213.822189 
	C361.367493,212.549652 361.986450,211.264160 361.933624,210.006882 
	C361.741699,205.438995 361.495178,200.859787 360.941864,196.324783 
	C360.451935,192.309219 359.659515,188.314178 358.696289,184.384720 
	C358.465973,183.445068 357.025879,182.801987 356.142212,182.022476 
	C355.433380,182.957016 354.381531,183.796127 354.089386,184.846558 
	C353.533783,186.844391 353.412476,188.963028 352.931763,191.859985 
	C352.290527,197.674591 351.631378,203.487305 351.012726,209.304321 
	C350.314423,215.870605 349.652496,222.440750 348.974701,229.009201 
	C347.848053,226.038071 347.539948,223.126617 347.047546,220.246674 
	C346.091034,214.652573 345.155182,209.047989 343.900085,203.518265 
	C343.672821,202.516876 341.968628,201.227264 340.931976,201.214294 
	C339.961090,201.202133 338.497040,202.522842 338.086182,203.581512 
	C337.169006,205.944717 336.773193,208.510254 335.848328,211.633118 
	C335.167633,212.046631 334.024750,212.945160 333.874542,212.802017 
	C330.883057,209.951324 328.408356,211.103973 325.882599,213.505814 
	C325.416504,213.949020 324.038116,214.154999 323.621002,213.812515 
	C320.487305,211.239914 317.807251,212.492523 315.104889,215.091888 
	C313.938782,212.290176 313.267273,209.707825 311.852020,207.632736 
	C310.975983,206.348236 309.038422,205.453842 307.436401,205.164124 
	C306.803070,205.049591 305.576965,206.944794 304.988037,208.110443 
	C303.662567,210.733810 302.566528,213.473068 301.218475,216.524231 
	C296.877625,210.352615 295.465302,210.291153 291.147644,215.761002 
	C290.179047,212.294571 289.241272,209.050919 288.370209,205.789444 
	C287.498047,202.523804 287.836395,198.155548 281.812836,199.307632 
	C281.597870,202.223267 281.384796,205.113159 280.814819,208.691788 
	C279.509399,213.345306 278.203979,217.998810 276.898590,222.652328 
	C275.473358,218.362488 275.103394,214.081818 273.877716,210.062073 
	C273.005432,207.201370 270.980865,204.692017 269.470520,202.025864 
	C267.967651,204.297607 266.458740,206.565384 264.970184,208.846466 
	C264.796448,209.112686 264.756805,209.462524 264.618683,209.756516 
	C263.774933,211.552032 262.787781,213.160706 260.666931,211.163940 
	C257.995331,208.648651 256.785980,210.207733 255.579163,212.696045 
	C254.748138,214.409546 253.543655,215.941940 252.445374,217.649643 
	C250.820480,213.742813 249.368561,209.987167 247.669968,206.346619 
	C247.223526,205.389801 245.881378,204.062439 245.183578,204.189102 
	C244.026810,204.399048 242.634399,205.434509 242.092361,206.503174 
	C240.566544,209.511322 239.423279,212.713516 238.087814,215.939148 
	C231.798965,211.132141 231.798965,211.132141 227.965759,216.879791 
	C227.614731,215.762573 227.265762,214.892975 227.070328,213.990143 
	C225.932541,208.734146 224.986832,203.428818 223.605423,198.238846 
	C223.266907,196.967041 221.543442,196.063873 220.456696,194.991226 
	C219.621002,196.228226 218.267334,197.374710 218.032791,198.716766 
	C216.376190,208.195755 214.949448,217.714890 213.202347,228.786469 
	C212.288651,222.913940 211.596436,218.464920 211.039734,213.146988 
	C210.259003,207.844269 209.640778,202.508606 208.577713,197.263107 
	C208.327240,196.027237 206.577438,195.095215 205.517365,194.023392 
	C204.655380,194.998001 203.793381,195.972595 202.981003,196.973816 
	C202.981003,196.973816 202.959030,196.922150 202.460297,197.079071 
	C202.364120,197.382324 202.267944,197.685593 202.047379,198.832962 
	C201.417053,203.560196 200.786728,208.287445 199.840775,213.680710 
	C199.214676,215.373398 198.588577,217.066086 197.709763,219.441971 
	C193.705582,207.876938 192.788712,207.303345 186.446579,211.701202 
	C183.926559,210.221176 182.140503,205.353516 178.387054,209.269989 
	C176.250854,211.498947 175.056854,214.630905 173.652176,216.996521 
	C172.412796,213.788818 171.106766,210.408646 169.980881,206.346634 
	C169.267456,204.801437 168.554047,203.256226 167.839264,200.966843 
	C167.499924,200.317200 167.160599,199.667557 166.888992,198.491074 
	C166.588593,198.394226 166.288177,198.297363 165.190125,198.106354 
	C164.135437,198.850403 162.321518,199.450424 162.148621,200.361786 
	C160.978531,206.529068 160.155380,212.762161 159.051041,219.735870 
	C159.020325,220.775864 158.989609,221.815842 158.099518,222.963058 
	C157.415421,222.334000 156.217270,221.768433 156.130432,221.065582 
	C155.555008,216.408493 155.217957,211.721939 154.979691,206.124069 
	C154.289352,193.845261 153.611206,181.565704 152.867264,169.290131 
	C152.835114,168.759720 152.197113,168.266037 151.901321,167.137329 
	C151.811356,166.322769 151.721375,165.508194 151.900665,164.177765 
	C151.617432,163.746536 151.334198,163.315323 150.601608,162.243011 
	C148.686600,161.886810 147.124969,161.620544 146.970123,164.542023 
	C146.519791,173.038818 145.801346,181.521423 145.055145,190.897064 
	C144.995483,193.582214 144.935837,196.267365 144.163284,199.448410 
	C143.786194,209.871735 143.380112,220.294113 143.039444,230.718628 
	C142.623352,243.450562 142.262177,256.184296 141.301987,268.743652 
	C141.146927,268.169250 140.991867,267.594849 140.986374,266.091064 
	C140.598953,250.065720 140.211517,234.040359 139.971207,217.143890 
	C139.580750,208.105042 139.190308,199.066177 138.954681,189.098328 
	C138.572891,180.046295 138.191101,170.994247 137.940338,161.023956 
	C137.622818,150.534027 137.317245,140.043701 136.954208,129.555344 
	C136.935104,129.002792 136.429016,128.467087 136.043045,127.104691 
	C136.013474,125.837105 136.255951,124.484543 135.892563,123.321236 
	C135.301361,121.428658 134.290482,119.730789 131.938309,122.847702 
M503.033813,270.948792 
	C503.310242,276.325317 503.586700,281.701843 503.926788,287.957031 
	C503.981262,290.309265 504.035706,292.661530 503.980316,295.943756 
	C503.987640,300.362610 503.888519,304.784943 504.032684,309.199341 
	C504.173065,313.498230 504.562500,317.788971 504.921936,322.946259 
	C504.976257,324.967163 505.030579,326.988037 504.983185,329.751068 
	C505.042786,330.495483 505.102356,331.239868 505.013275,332.777283 
	C505.792480,334.192169 506.571655,335.607056 507.350861,337.021912 
	C508.229340,335.507751 509.750031,334.045166 509.876465,332.470642 
	C510.457611,325.235107 510.696533,317.970062 510.968628,310.712250 
	C511.302216,301.813385 511.546600,292.911163 511.981110,283.082611 
	C511.983795,275.944580 511.877808,268.804413 512.018921,261.669098 
	C512.168335,254.115585 512.552795,246.566727 512.989868,238.087830 
	C513.038757,227.763412 513.087646,217.439011 513.871643,206.632507 
	C513.870422,197.127197 513.869141,187.621902 513.956116,177.178711 
	C513.912842,173.115158 513.869568,169.051605 513.954346,164.060074 
	C513.969604,156.707764 513.984924,149.355469 514.740051,141.784164 
	C515.160095,140.192307 515.580078,138.600449 515.998352,137.869888 
	C516.054749,139.588654 516.111084,141.307404 516.059326,143.954758 
	C516.432373,157.313095 516.805420,170.671448 517.067688,184.957520 
	C517.431763,198.312332 517.795898,211.667130 518.031433,225.948669 
	C518.347717,241.622086 518.653381,257.295746 519.014587,272.968109 
	C519.031006,273.679749 519.548401,274.379883 519.922546,275.868286 
	C519.972656,276.915222 520.022766,277.962158 519.976685,279.498444 
	C519.976685,279.498444 520.114563,279.977692 520.004456,280.882660 
	C520.380493,285.225830 520.756531,289.568970 521.232971,295.071625 
	C526.477417,289.786987 530.285950,220.987885 526.483276,212.001846 
	C525.665283,213.592026 525.083252,215.276886 525.024963,216.979691 
	C524.623047,228.711960 524.471008,240.454437 523.932678,252.179581 
	C523.720886,256.794250 522.724915,261.372925 521.989746,265.047211 
	C521.658020,255.133240 521.283936,245.220398 521.017517,235.304672 
	C520.924683,231.850037 521.097778,228.388260 521.081665,224.104996 
	C521.023438,222.730179 520.965210,221.355362 520.994202,219.503815 
	C520.994202,219.503815 520.859558,219.038239 520.976868,218.102585 
	C520.609375,206.413345 520.241882,194.724121 519.992798,182.099823 
	C519.606079,169.075317 519.219299,156.050812 518.986023,142.097153 
	C518.285828,127.268234 517.614624,112.437744 516.816589,97.614090 
	C516.766296,96.680573 515.724915,95.800423 514.859802,94.451256 
	C511.481598,98.349785 513.570374,102.402695 512.697632,106.793022 
	C512.474915,107.214775 512.063599,107.633392 512.056458,108.058731 
	C511.739899,127.034821 511.458923,146.011490 511.027039,165.916702 
	C511.074982,173.286057 511.122925,180.655411 511.049011,188.889755 
	C510.639557,197.893280 510.230103,206.896820 509.185059,216.316162 
	C509.136597,218.204163 509.069153,220.091888 509.042511,221.980209 
	C508.746277,242.989975 508.456360,263.999847 508.028778,285.919037 
	C507.974487,289.591278 507.920197,293.263550 507.447601,296.961884 
	C507.447601,296.961884 507.034790,296.889862 506.998932,296.258789 
	C506.946716,295.842316 506.894531,295.425873 506.992096,294.081543 
	C506.993652,291.304443 507.102570,288.522339 506.972626,285.751404 
	C506.757050,281.155182 506.387878,276.566101 505.964142,271.328888 
	C505.917206,270.895111 505.870239,270.461334 506.003937,269.104218 
	C505.621918,263.067139 505.239899,257.030029 505.015961,250.370209 
	C505.015320,249.942062 505.014709,249.513916 505.779907,248.647949 
	C505.857422,239.056717 505.954681,229.465500 505.968933,219.874161 
	C505.969910,219.219940 505.347717,218.564804 504.990997,217.097092 
	C504.932739,215.744507 504.874481,214.391907 504.979218,212.109604 
	C504.630859,202.075989 504.282471,192.042374 504.068115,181.078690 
	C503.652649,167.725296 503.237213,154.371902 502.968872,140.126953 
	C502.625244,134.268326 502.356750,128.403336 501.861908,122.557495 
	C501.782166,121.615974 500.693726,120.759842 499.641754,119.232719 
	C499.072815,119.597946 498.035950,119.928787 498.006195,120.333626 
	C497.647888,125.209122 497.438507,130.095566 497.042938,135.833191 
	C497.092712,137.562225 497.142456,139.291260 497.062225,141.857666 
	C497.180206,143.450623 496.768127,146.085114 497.505737,146.460495 
	C501.159729,148.320007 499.711639,151.459412 499.985382,154.148148 
	C500.149292,155.758148 500.117493,157.388092 500.040192,159.748169 
	C500.077942,160.495819 500.115723,161.243469 500.050995,162.835907 
	C500.417572,169.230240 500.784119,175.624557 501.037689,182.947296 
	C501.081116,188.977386 501.124512,195.007477 501.049133,201.945831 
	C501.356720,217.102814 501.622650,232.260971 502.049500,247.414597 
	C502.084259,248.648392 503.218231,249.851242 503.948944,251.906189 
	C503.684387,257.945618 503.419861,263.985077 503.033813,270.948792 
M497.994965,181.502304 
	C497.994965,181.502304 497.910675,181.027008 498.051697,180.222641 
	C497.982208,179.140244 497.912689,178.057831 497.953186,176.161987 
	C497.953186,169.793381 497.953186,163.424789 497.953186,157.056183 
	C497.026367,157.071991 496.099548,157.087799 495.172729,157.103607 
	C495.172729,163.726959 495.172729,170.350327 495.014404,177.876724 
	C494.941406,181.212509 494.868378,184.548294 494.111450,188.422562 
	C494.128632,195.279831 494.145813,202.137115 494.019806,209.900009 
	C493.673065,213.823456 493.162445,217.740601 493.010803,221.671570 
	C492.583588,232.744720 492.303986,243.823547 491.206390,254.601822 
	C491.060547,252.406036 490.914703,250.210251 490.730560,247.437607 
	C486.494629,252.726959 487.684998,271.319702 492.417786,276.293823 
	C495.303528,269.577942 495.225281,262.817993 495.248779,255.252197 
	C495.477966,254.833847 495.898102,254.420242 495.908630,253.996460 
	C496.248474,240.325806 496.548798,226.654160 497.001526,212.505905 
	C497.001526,212.505905 496.901398,212.017303 497.036621,211.374802 
	C497.084106,210.940536 497.131622,210.506256 497.840027,209.625748 
	C497.838013,207.758453 497.835999,205.891174 497.990845,203.095276 
	C497.949829,196.052841 497.908844,189.010422 497.994965,181.502304 
M549.018005,214.875458 
	C549.674927,221.992264 550.122803,229.137039 551.069641,236.215057 
	C551.609802,240.252686 552.963745,244.181442 554.331604,248.765228 
	C555.563049,247.151291 557.495850,245.691177 557.890076,243.893616 
	C558.938599,239.112442 559.552856,234.202438 559.907715,229.312286 
	C560.253601,224.545898 560.064514,219.740707 560.015015,214.159897 
	C560.015015,212.758728 560.015015,211.357574 560.015015,209.956406 
	C559.725891,209.984314 559.436707,210.012238 559.147583,210.040146 
	C559.055176,211.674744 558.962830,213.309357 558.162781,215.314117 
	C557.436768,220.008911 556.801636,224.720779 555.924805,229.387222 
	C555.687134,230.652359 554.719116,231.780258 553.984497,232.056961 
	C553.620789,227.505981 553.257080,222.955002 552.908875,217.719711 
	C552.681335,217.702728 552.453796,217.685730 552.906128,217.448792 
	C552.887146,216.981049 552.868225,216.513290 552.949951,215.165817 
	C552.268616,209.690765 551.726379,204.193085 550.841492,198.751144 
	C550.456482,196.383240 548.719055,194.862793 546.314148,196.435089 
	C543.511047,198.267731 543.330505,205.683701 545.994263,208.754135 
	C546.549988,207.290314 547.026611,206.035034 548.041077,203.362991 
	C548.522766,207.918564 548.845520,210.970688 549.018005,214.875458 
M474.004028,217.234314 
	C473.691345,216.149078 473.402191,215.056412 473.062225,213.979813 
	C471.085358,207.720367 469.046722,207.198013 464.797089,211.778793 
	C462.199524,208.709717 463.272217,202.985458 457.275879,201.627426 
	C456.621277,204.793167 456.036652,207.620605 455.451996,210.448029 
	C455.900238,210.515152 456.348450,210.582260 456.796692,210.649384 
	C457.529022,209.731186 458.261322,208.812988 459.121429,207.734573 
	C462.589508,215.457306 462.447510,219.122070 469.649139,213.386887 
	C470.149170,214.929901 470.647766,216.468430 471.018738,218.801422 
	C471.856750,221.911163 472.507965,225.089447 473.612885,228.101257 
	C474.152435,229.571899 475.537384,230.732361 476.539673,232.033203 
	C477.389587,230.627167 478.700256,229.314362 479.006927,227.798416 
	C480.131378,222.240173 480.922028,216.614395 481.967621,210.099289 
	C482.369324,203.702530 482.771027,197.305771 483.172729,190.909012 
	C483.447632,190.901138 483.722534,190.893280 483.997406,190.885406 
	C484.720764,198.261383 485.444092,205.637360 486.031403,213.918091 
	C486.500854,220.220642 486.970306,226.523178 487.439758,232.825729 
	C488.056671,232.778503 488.673615,232.731277 489.290527,232.684052 
	C490.733643,226.139908 490.044800,219.578766 488.971741,212.100128 
	C488.445587,200.233978 488.599792,188.266617 484.102112,176.870712 
	C479.562805,185.930496 479.610718,195.521973 478.932129,205.851074 
	C478.131592,211.907410 477.331055,217.963745 476.530487,224.020096 
	C476.251495,223.977493 475.972504,223.934906 475.693512,223.892319 
	C475.077972,221.930603 474.462402,219.968903 474.004028,217.234314 
M369.877472,183.687622 
	C369.638885,184.786621 369.400299,185.885620 369.011688,187.658585 
	C369.044128,188.116287 369.076569,188.573990 368.688049,189.767883 
	C368.122345,195.073242 367.439697,200.369263 367.016052,205.685944 
	C366.207428,215.834641 365.546478,225.995102 364.824219,236.150696 
	C364.642517,236.159897 364.460846,236.169113 364.279144,236.178314 
	C364.122711,235.114151 363.966278,234.049988 363.671204,232.217545 
	C363.326447,230.197922 362.981659,228.178284 362.372345,224.609009 
	C361.366852,226.599640 360.519348,227.478287 360.573517,228.297302 
	C360.985565,234.528687 361.573883,240.748428 362.209869,247.677856 
	C366.200043,250.543396 366.726227,247.224396 366.988861,244.689926 
	C368.117279,233.800873 368.976196,222.884232 370.005127,211.984406 
	C370.539825,206.320114 371.224091,200.669937 372.304779,194.464325 
	C372.587280,197.320602 372.869751,200.176880 373.119080,203.563019 
	C373.394989,203.776581 373.670868,203.990128 373.943909,204.621063 
	C373.943909,204.621063 374.075012,205.017319 373.962738,205.666077 
	C374.010742,206.099960 374.058716,206.533859 373.996033,207.805313 
	C374.044403,209.209488 374.092773,210.613663 374.010040,212.668640 
	C374.378540,213.433990 374.747040,214.199326 375.021240,215.496124 
	C375.065308,215.670563 375.109375,215.845001 375.026154,216.898972 
	C375.368988,221.302521 375.127808,225.866135 376.274323,230.049438 
	C376.958984,232.547745 375.692688,237.794540 382.413696,236.764618 
	C383.610962,227.963791 384.831329,218.993286 386.663300,209.714264 
	C386.876740,208.968323 387.090179,208.222366 387.400116,207.139160 
	C388.030273,208.616287 388.452515,209.747955 388.984100,210.825729 
	C390.649017,214.201431 391.885986,218.478378 397.069366,214.677032 
	C397.361450,214.462830 398.783539,215.258148 399.223328,215.897507 
	C399.934204,216.930984 400.052795,218.389847 400.809326,219.369614 
	C401.839081,220.703232 403.080872,222.272644 404.538147,222.702820 
	C405.234192,222.908264 407.034576,220.904160 407.639557,219.582596 
	C409.114960,216.359558 410.184753,212.950836 411.394745,209.679276 
	C415.862671,216.706131 417.096802,217.290115 421.979645,214.447083 
	C424.462830,218.215469 427.653992,219.096283 431.476227,216.254105 
	C433.407440,217.971924 435.219299,219.583572 438.262421,222.290451 
	C439.683655,217.838943 440.775696,214.418518 442.026367,210.218048 
	C442.583008,208.482056 443.139648,206.746048 443.984741,204.110413 
	C447.229126,213.951691 445.407288,224.272018 452.546082,232.141083 
	C454.681488,226.656937 455.907806,221.214035 456.904419,215.729385 
	C457.110748,214.593811 456.463501,213.303131 456.209656,212.083954 
	C455.447052,213.162643 454.411713,214.142563 453.977844,215.340332 
	C453.040100,217.929276 452.410736,220.629913 451.655212,223.284866 
	C450.694763,221.164215 450.443451,219.084167 450.074493,217.025208 
	C449.095276,211.560043 448.268738,206.053467 446.933655,200.674515 
	C446.523712,199.022797 444.666809,197.730240 443.472473,196.273224 
	C442.858459,196.461609 442.244476,196.649979 441.630463,196.838364 
	C440.813171,201.558182 439.995880,206.278015 439.042816,211.747681 
	C438.549500,213.185120 438.056183,214.622543 437.215881,217.071045 
	C433.913666,212.137146 430.510681,211.711121 426.876862,215.178223 
	C424.184448,211.624725 421.268158,209.599274 417.240875,212.934586 
	C416.322968,211.395309 415.856110,210.092026 414.961517,209.235458 
	C413.650635,207.980316 412.136871,206.551285 410.497711,206.207993 
	C409.808441,206.063629 408.338715,208.384476 407.646637,209.792496 
	C406.426514,212.274750 405.530884,214.916504 404.438263,217.644028 
	C399.157318,209.904831 398.196869,209.478378 393.376587,212.572952 
	C392.028778,209.631470 390.815674,206.621689 389.296997,203.774918 
	C387.876617,201.112473 386.202698,200.401031 384.285614,204.205795 
	C384.239746,204.801651 384.193848,205.397507 384.040039,206.508743 
	C384.079041,206.679886 384.118042,206.851028 383.777344,207.736450 
	C382.505981,214.291458 381.234619,220.846466 379.963257,227.401459 
	C379.772308,227.343719 379.581390,227.285965 379.390442,227.228210 
	C378.882385,223.491272 378.374359,219.754318 378.002380,215.144196 
	C377.953400,213.085724 377.904419,211.027252 377.887207,208.436920 
	C377.607727,208.227356 377.328247,208.017792 377.064728,207.194717 
	C377.017365,206.790497 376.969971,206.386276 377.030945,205.334381 
	C376.976776,204.902878 376.922607,204.471390 376.963287,203.160172 
	C376.618073,198.763901 376.438263,194.345886 375.864319,189.979691 
	C375.530975,187.443939 374.945099,184.793869 373.782135,182.553864 
	C372.471100,180.028778 370.894958,180.028137 369.877472,183.687622 
M532.101013,207.562439 
	C532.380249,207.780334 532.659485,207.998230 532.940369,208.619827 
	C532.940369,208.619827 533.059631,209.005524 532.940369,209.842789 
	C533.355164,212.388840 533.447449,215.051132 534.307251,217.436783 
	C534.812866,218.839645 537.256165,220.982651 537.598816,220.774033 
	C539.950623,219.342087 542.182373,217.557541 544.007080,215.492645 
	C544.728638,214.676132 544.311646,212.853561 544.507080,210.223907 
	C541.702271,213.275803 540.063354,215.059082 537.801453,217.520203 
	C536.993774,213.967941 536.430237,211.489548 535.993652,208.140991 
	C534.279419,198.671722 535.184570,188.623474 530.772278,179.750565 
	C529.964722,179.758530 529.157166,179.766495 528.349670,179.774475 
	C527.747925,184.376144 527.146118,188.977814 526.450317,194.298950 
	C528.644409,193.720932 529.805969,193.414932 530.943054,193.115387 
	C531.354065,197.888702 531.747375,202.456558 532.101013,207.562439 
M578.015259,256.818756 
	C579.089844,259.387268 580.463440,258.938477 581.000793,256.737823 
	C581.727783,253.760391 581.984253,250.641449 582.182678,247.566452 
	C582.850037,237.221893 583.448181,226.872009 583.917664,216.517105 
	C583.958313,215.619797 582.858704,214.670792 582.288818,213.745804 
	C580.727295,221.916245 580.358704,229.623749 579.840271,237.321121 
	C579.800842,237.907013 578.700012,238.421402 577.993347,238.105392 
	C577.993347,236.103058 577.993347,234.100723 577.993347,230.933319 
	C576.394287,232.411331 575.385864,232.892944 575.338989,233.454727 
	C574.694397,241.184082 574.635742,248.870911 578.015259,256.818756 
M560.033630,198.824112 
	C560.033630,200.609299 560.033630,202.394485 560.033630,204.179672 
	C560.281616,204.186218 560.529541,204.192764 560.777527,204.199310 
	C560.884277,202.145905 560.991089,200.092499 561.930359,198.042938 
	C562.288635,199.682465 562.573486,201.342239 563.019104,202.957672 
	C564.273254,207.504456 563.073364,213.121368 568.550476,216.439545 
	C569.855469,212.681885 570.970276,209.471909 572.467773,205.160034 
	C573.005188,208.969055 573.348816,211.405029 573.692505,213.841003 
	C574.183899,213.787979 574.675354,213.734970 575.166809,213.681961 
	C577.032715,208.121170 575.828369,202.658264 573.914734,197.282181 
	C573.692749,196.658493 572.395752,196.039459 571.650024,196.097534 
	C571.032410,196.145630 570.208740,197.101379 569.969116,197.819382 
	C569.052856,200.566086 568.335449,203.379181 567.601074,205.965698 
	C564.264160,200.921448 567.742004,192.799667 560.162415,188.020035 
	C560.162415,192.260590 560.162415,195.127579 560.033630,198.824112 
z"/>
<path fill="#A4A4A4" opacity="1.000000" stroke="none" 
	d="
M210.904221,214.015900 
	C211.596436,218.464920 212.288651,222.913940 213.202347,228.786469 
	C214.949448,217.714890 216.376190,208.195755 218.032791,198.716766 
	C218.267334,197.374710 219.621002,196.228226 220.456696,194.991226 
	C221.543442,196.063873 223.266907,196.967041 223.605423,198.238846 
	C224.986832,203.428818 225.932541,208.734146 227.070328,213.990143 
	C227.265762,214.892975 227.614731,215.762573 227.965759,216.879791 
	C231.798965,211.132141 231.798965,211.132141 238.087814,215.939148 
	C239.423279,212.713516 240.566544,209.511322 242.092361,206.503174 
	C242.634399,205.434509 244.026810,204.399048 245.183578,204.189102 
	C245.881378,204.062439 247.223526,205.389801 247.669968,206.346619 
	C249.368561,209.987167 250.820480,213.742813 252.445374,217.649643 
	C253.543655,215.941940 254.748138,214.409546 255.579163,212.696045 
	C256.785980,210.207733 257.995331,208.648651 260.666931,211.163940 
	C262.787781,213.160706 263.774933,211.552032 264.618683,209.756516 
	C264.756805,209.462524 264.796448,209.112686 264.970184,208.846466 
	C266.458740,206.565384 267.967651,204.297607 269.470520,202.025864 
	C270.980865,204.692017 273.005432,207.201370 273.877716,210.062073 
	C275.103394,214.081818 275.473358,218.362488 276.898590,222.652328 
	C278.203979,217.998810 279.509399,213.345306 281.269348,208.347198 
	C282.092010,208.002350 282.460144,208.002106 282.828278,208.001862 
	C282.161377,216.260193 282.309509,224.716705 277.281067,232.933426 
	C270.864502,224.943649 272.936035,215.565903 269.342316,207.449280 
	C268.791901,208.886597 268.291718,210.241913 267.756042,211.583054 
	C265.433716,217.397598 264.352264,217.707672 258.849060,213.911728 
	C257.608612,216.098038 256.618835,218.457123 255.086578,220.385132 
	C253.236649,222.712860 251.221497,222.917160 249.918640,219.628799 
	C248.427322,215.864716 246.887268,212.119934 245.152603,207.833557 
	C244.034378,210.729752 243.221863,213.494049 241.908218,215.995163 
	C241.087097,217.558548 239.555023,219.756210 238.262146,219.811768 
	C236.606186,219.882935 234.869949,218.086090 232.905884,216.941208 
	C231.878250,218.162872 230.230759,220.121429 228.243729,222.483643 
	C222.266830,217.586945 223.351364,210.526489 221.231750,203.918915 
	C217.001190,214.504669 219.917542,226.503860 213.089203,236.114044 
	C209.001373,229.503174 207.961838,222.347870 208.470444,214.468170 
	C209.551422,214.020172 210.227814,214.018036 210.904221,214.015900 
z"/>
<path fill="#8F9091" opacity="1.000000" stroke="none" 
	d="
M78.946091,202.119797 
	C77.654068,207.028397 76.561234,212.003006 74.967491,216.811600 
	C74.368378,218.619247 72.606956,220.041656 71.375412,221.639694 
	C69.908226,220.417053 68.258919,219.352951 67.020874,217.930832 
	C65.538216,216.227722 64.406715,214.218918 62.854107,211.949188 
	C61.829517,212.867386 61.011650,213.539734 60.262405,214.281403 
	C54.744553,219.743576 54.832771,219.649628 48.960892,214.638901 
	C48.002357,213.820969 45.920883,214.132431 44.377666,214.229111 
	C41.952740,214.380997 39.540615,215.070816 37.129406,215.039825 
	C31.858551,214.972076 26.650372,214.414948 22.113161,218.248688 
	C20.722506,219.423752 18.394896,219.489929 16.228558,220.144882 
	C17.915125,214.354950 26.066154,210.142838 31.795303,211.421127 
	C36.317272,212.430054 40.770229,212.975769 44.952606,209.759003 
	C45.874252,209.050125 48.475292,209.539658 49.653328,210.383881 
	C51.350899,211.600418 52.454205,213.646194 53.823086,215.353012 
	C63.639202,205.131836 63.221817,207.495453 71.414627,216.571915 
	C72.962273,209.914337 74.381248,203.810303 76.278557,197.340668 
	C78.184669,196.282654 79.612450,195.590225 81.040230,194.897812 
	C81.634567,196.360229 82.228897,197.822632 82.509125,199.663742 
	C81.112038,200.734879 80.029060,201.427338 78.946091,202.119797 
z"/>
<path fill="#A9A8A7" opacity="1.000000" stroke="none" 
	d="
M520.072876,279.009094 
	C520.022766,277.962158 519.972656,276.915222 520.126221,275.162537 
	C520.915283,271.627167 521.500671,268.797607 522.086060,265.968018 
	C522.724915,261.372925 523.720886,256.794250 523.932678,252.179581 
	C524.471008,240.454437 524.623047,228.711960 525.024963,216.979691 
	C525.083252,215.276886 525.665283,213.592026 526.483276,212.001846 
	C530.285950,220.987885 526.477417,289.786987 521.232971,295.071625 
	C520.756531,289.568970 520.380493,285.225830 520.146362,280.316467 
	C520.402893,279.463593 520.331055,279.216522 520.072876,279.009094 
z"/>
<path fill="#868789" opacity="1.000000" stroke="none" 
	d="
M112.119110,202.959625 
	C112.628639,203.344681 113.138153,203.729736 113.694962,204.150528 
	C114.709076,194.933807 114.437294,185.203308 117.914474,176.182404 
	C118.423485,176.110123 118.932495,176.037857 119.441505,175.965576 
	C120.255890,177.734177 121.706787,179.478241 121.776085,181.275558 
	C122.101738,189.721588 121.847511,198.190689 122.203842,206.634537 
	C122.421753,211.798462 123.369347,216.931595 123.744682,222.376251 
	C122.632401,223.128189 121.764664,223.582443 120.896942,224.036697 
	C120.599792,222.342529 120.062889,220.650772 120.045822,218.953781 
	C119.958603,210.279083 120.005501,201.603027 120.005501,192.927444 
	C119.550430,192.931396 119.095367,192.935333 118.640297,192.939285 
	C117.768593,199.127625 117.038574,205.341553 115.928436,211.486832 
	C115.640503,213.080704 114.163254,214.459717 113.232292,215.937424 
	C112.155128,214.276260 110.985481,212.665039 110.047707,210.928589 
	C109.687782,210.262146 109.856689,209.310104 109.345154,208.037262 
	C109.976814,206.044098 111.047958,204.501862 112.119110,202.959625 
z"/>
<path fill="#A2A2A2" opacity="1.000000" stroke="none" 
	d="
M282.969391,207.690704 
	C282.460144,208.002106 282.092010,208.002350 281.447815,208.002838 
	C281.384796,205.113159 281.597870,202.223267 281.812836,199.307632 
	C287.836395,198.155548 287.498047,202.523804 288.370209,205.789444 
	C289.241272,209.050919 290.179047,212.294571 291.147644,215.761002 
	C295.465302,210.291153 296.877625,210.352615 301.218475,216.524231 
	C302.566528,213.473068 303.662567,210.733810 304.988037,208.110443 
	C305.576965,206.944794 306.803070,205.049591 307.436401,205.164124 
	C309.038422,205.453842 310.975983,206.348236 311.852020,207.632736 
	C313.267273,209.707825 313.938782,212.290176 315.104889,215.091888 
	C317.807251,212.492523 320.487305,211.239914 323.621002,213.812515 
	C324.038116,214.154999 325.416504,213.949020 325.882599,213.505814 
	C328.408356,211.103973 330.883057,209.951324 333.874542,212.802017 
	C334.024750,212.945160 335.167633,212.046631 336.378845,211.316803 
	C337.653503,211.017822 338.397705,211.035156 339.141876,211.052490 
	C336.549286,217.781158 335.873291,218.029968 330.390259,214.180298 
	C327.508850,217.432419 324.427612,219.580627 320.731995,215.237885 
	C314.524536,220.265472 314.524536,220.265472 308.650970,209.277557 
	C306.754761,212.993240 304.918243,216.591888 302.846588,220.651398 
	C300.225281,218.928162 298.262238,217.637665 296.303772,216.351898 
	C290.484070,221.703293 288.781921,221.128510 286.948303,213.381866 
	C286.331055,210.774048 285.354950,208.251160 284.538391,205.675400 
	C284.446503,205.683624 284.208862,205.639496 284.153351,205.720398 
	C283.783966,206.258514 283.453583,206.823395 282.969391,207.690704 
z"/>
<path fill="#A2A2A2" opacity="1.000000" stroke="none" 
	d="
M384.842621,203.932327 
	C386.202698,200.401031 387.876617,201.112473 389.296997,203.774918 
	C390.815674,206.621689 392.028778,209.631470 393.376587,212.572952 
	C398.196869,209.478378 399.157318,209.904831 404.438263,217.644028 
	C405.530884,214.916504 406.426514,212.274750 407.646637,209.792496 
	C408.338715,208.384476 409.808441,206.063629 410.497711,206.207993 
	C412.136871,206.551285 413.650635,207.980316 414.961517,209.235458 
	C415.856110,210.092026 416.322968,211.395309 417.240875,212.934586 
	C421.268158,209.599274 424.184448,211.624725 426.876862,215.178223 
	C430.510681,211.711121 433.913666,212.137146 437.215881,217.071045 
	C438.056183,214.622543 438.549500,213.185120 439.446838,211.372772 
	C440.523132,210.997940 441.195435,210.998016 441.867737,210.998077 
	C440.775696,214.418518 439.683655,217.838943 438.262421,222.290451 
	C435.219299,219.583572 433.407440,217.971924 431.476227,216.254105 
	C427.653992,219.096283 424.462830,218.215469 421.979645,214.447083 
	C417.096802,217.290115 415.862671,216.706131 411.394745,209.679276 
	C410.184753,212.950836 409.114960,216.359558 407.639557,219.582596 
	C407.034576,220.904160 405.234192,222.908264 404.538147,222.702820 
	C403.080872,222.272644 401.839081,220.703232 400.809326,219.369614 
	C400.052795,218.389847 399.934204,216.930984 399.223328,215.897507 
	C398.783539,215.258148 397.361450,214.462830 397.069366,214.677032 
	C391.885986,218.478378 390.649017,214.201431 388.984100,210.825729 
	C388.452515,209.747955 388.030273,208.616287 387.400116,207.139160 
	C387.090179,208.222366 386.876740,208.968323 386.148132,209.656738 
	C385.140991,208.740189 384.649017,207.881180 384.157043,207.022156 
	C384.118042,206.851028 384.079041,206.679886 384.334778,206.176819 
	C384.700562,205.207367 384.771576,204.569855 384.842621,203.932327 
z"/>
<path fill="#A9A8A7" opacity="1.000000" stroke="none" 
	d="
M339.459808,210.875397 
	C338.397705,211.035156 337.653503,211.017822 336.537140,210.996933 
	C336.773193,208.510254 337.169006,205.944717 338.086182,203.581512 
	C338.497040,202.522842 339.961090,201.202133 340.931976,201.214294 
	C341.968628,201.227264 343.672821,202.516876 343.900085,203.518265 
	C345.155182,209.047989 346.091034,214.652573 347.047546,220.246674 
	C347.539948,223.126617 347.848053,226.038071 348.974701,229.009201 
	C349.652496,222.440750 350.314423,215.870605 351.012726,209.304321 
	C351.631378,203.487305 352.290527,197.674591 353.236023,191.745056 
	C354.303253,193.758774 355.066223,195.887421 355.829224,198.016083 
	C354.873840,207.072556 353.935059,216.130844 352.953888,225.184525 
	C352.620056,228.264786 352.481384,231.417938 351.655823,234.370651 
	C351.262573,235.777161 349.469482,236.792282 348.310486,237.984695 
	C347.524994,236.703995 346.284302,235.507538 346.029114,234.128693 
	C344.555267,226.164841 343.325348,218.156052 341.978760,210.168198 
	C341.824585,209.253601 341.458710,208.374680 340.784363,206.119232 
	C340.260193,208.503708 340.018951,209.601013 339.459808,210.875397 
z"/>
<path fill="#979797" opacity="1.000000" stroke="none" 
	d="
M120.950729,224.500275 
	C121.764664,223.582443 122.632401,223.128189 123.667175,222.830078 
	C124.629997,235.181961 125.425774,247.377716 126.637070,260.196747 
	C127.044258,262.639038 126.797646,264.496216 127.081291,266.268494 
	C127.552185,269.210785 128.363846,272.098480 129.031952,275.009186 
	C129.031952,280.541687 129.031952,286.074219 129.031952,291.606720 
	C128.373886,291.830139 127.715805,292.053558 127.057732,292.277008 
	C126.053139,291.385345 124.380402,290.628967 124.167473,289.577087 
	C123.490646,286.233490 123.182121,282.786896 123.043983,279.367493 
	C122.311478,261.235077 121.674568,243.098785 120.950729,224.500275 
z"/>
<path fill="#929293" opacity="1.000000" stroke="none" 
	d="
M202.843918,213.003601 
	C203.003387,217.866653 202.233246,222.413010 197.437363,227.066116 
	C195.133774,222.249512 193.075012,217.944855 190.819016,213.227798 
	C187.299683,216.239563 184.128952,215.374832 181.030136,211.404419 
	C179.517471,214.292114 178.499710,216.990692 176.814194,219.173676 
	C175.776901,220.517136 173.394989,222.097427 172.203415,221.719894 
	C170.755402,221.261108 169.587646,218.986008 168.909164,217.257095 
	C167.981750,214.893845 167.629700,212.304794 167.211319,209.237381 
	C168.194656,208.117645 168.997696,207.573044 169.800720,207.028458 
	C171.106766,210.408646 172.412796,213.788818 173.652176,216.996521 
	C175.056854,214.630905 176.250854,211.498947 178.387054,209.269989 
	C182.140503,205.353516 183.926559,210.221176 186.446747,211.700623 
	C192.788712,207.303345 193.705582,207.876938 197.709763,219.441971 
	C198.588577,217.066086 199.214676,215.373398 200.215240,213.443207 
	C201.341125,213.138336 202.092514,213.070969 202.843918,213.003601 
z"/>
<path fill="#868789" opacity="1.000000" stroke="none" 
	d="
M95.939789,200.023819 
	C95.502922,195.046646 95.066063,190.069458 94.629204,185.092285 
	C94.223297,185.063293 93.817390,185.034286 93.411484,185.005295 
	C93.266479,190.034348 93.121475,195.063385 92.616470,200.456665 
	C91.229851,200.219208 90.203224,199.617493 89.176598,199.015793 
	C89.126060,197.938049 89.075531,196.860306 89.386398,195.260330 
	C89.809074,193.481140 89.870346,192.224167 89.931625,190.967209 
	C90.574356,182.455444 91.132774,173.935516 91.955696,165.441208 
	C92.071815,164.242661 93.478836,163.169189 94.288338,162.037827 
	C95.172729,163.237854 96.720108,164.377487 96.835793,165.647537 
	C97.698776,175.122299 98.278290,184.622894 98.571236,194.710526 
	C97.443794,196.878387 96.691788,198.451096 95.939789,200.023819 
z"/>
<path fill="#818284" opacity="1.000000" stroke="none" 
	d="
M147.843948,206.972595 
	C147.226654,220.287018 146.604996,233.601242 145.993729,246.915939 
	C145.638016,254.664001 145.298950,262.412842 144.577606,270.501617 
	C143.427628,270.200378 142.652435,269.558807 141.877243,268.917267 
	C142.262177,256.184296 142.623352,243.450562 143.039444,230.718628 
	C143.380112,220.294113 143.786194,209.871735 144.746750,199.514435 
	C146.168121,202.044510 147.006042,204.508545 147.843948,206.972595 
z"/>
<path fill="#929293" opacity="1.000000" stroke="none" 
	d="
M78.973648,202.543854 
	C80.029060,201.427338 81.112038,200.734879 82.534485,200.022339 
	C84.145760,212.852325 85.417564,225.702408 87.089127,238.115295 
	C88.352448,238.126358 89.216034,238.574600 90.079620,239.022858 
	C90.024574,240.400375 89.969536,241.777878 89.553986,243.687897 
	C89.136429,245.482574 89.079384,246.744766 89.022339,248.006943 
	C88.557533,249.568619 88.092728,251.130295 87.060333,252.828354 
	C86.492744,252.964722 86.023438,252.989777 86.023438,252.989777 
	C85.034874,250.911621 83.415077,248.905228 83.169273,246.742645 
	C82.210251,238.305191 81.749382,229.812546 80.979515,221.351685 
	C80.421089,215.214569 79.667686,209.095200 78.973648,202.543854 
z"/>
<path fill="#A4A4A4" opacity="1.000000" stroke="none" 
	d="
M441.947021,210.608063 
	C441.195435,210.998016 440.523132,210.997940 439.514709,210.997864 
	C439.995880,206.278015 440.813171,201.558182 441.630463,196.838364 
	C442.244476,196.649979 442.858459,196.461609 443.472473,196.273224 
	C444.666809,197.730240 446.523712,199.022797 446.933655,200.674515 
	C448.268738,206.053467 449.095276,211.560043 450.074493,217.025208 
	C450.443451,219.084167 450.694763,221.164215 451.655212,223.284866 
	C452.410736,220.629913 453.040100,217.929276 453.977844,215.340332 
	C454.411713,214.142563 455.447052,213.162643 456.209656,212.083954 
	C456.463501,213.303131 457.110748,214.593811 456.904419,215.729385 
	C455.907806,221.214035 454.681488,226.656937 452.546082,232.141083 
	C445.407288,224.272018 447.229126,213.951691 443.984741,204.110413 
	C443.139648,206.746048 442.583008,208.482056 441.947021,210.608063 
z"/>
<path fill="#979797" opacity="1.000000" stroke="none" 
	d="
M486.167450,213.013336 
	C485.444092,205.637360 484.720764,198.261383 483.997406,190.885406 
	C483.722534,190.893280 483.447632,190.901138 483.172729,190.909012 
	C482.771027,197.305771 482.369324,203.702530 481.595337,210.408493 
	C480.520294,208.819550 479.817596,206.921402 479.114868,205.023254 
	C479.610718,195.521973 479.562805,185.930496 484.102112,176.870712 
	C488.599792,188.266617 488.445587,200.233978 488.569000,212.554749 
	C487.500000,213.010696 486.833710,213.012024 486.167450,213.013336 
z"/>
<path fill="#A4A4A4" opacity="1.000000" stroke="none" 
	d="
M371.840820,195.013367 
	C371.224091,200.669937 370.539825,206.320114 370.005127,211.984406 
	C368.976196,222.884232 368.117279,233.800873 366.988861,244.689926 
	C366.726227,247.224396 366.200043,250.543396 362.365173,247.074646 
	C363.396179,243.016983 366.861053,239.515121 362.300873,236.077026 
	C362.126251,235.945374 363.276794,234.056076 363.809845,232.985825 
	C363.966278,234.049988 364.122711,235.114151 364.279144,236.178314 
	C364.460846,236.169113 364.642517,236.159897 364.824219,236.150696 
	C365.546478,225.995102 366.207428,215.834641 367.016052,205.685944 
	C367.439697,200.369263 368.122345,195.073242 369.109070,189.686707 
	C370.300293,191.408142 371.070557,193.210754 371.840820,195.013367 
z"/>
<path fill="#979797" opacity="1.000000" stroke="none" 
	d="
M560.162415,197.994568 
	C560.162415,195.127579 560.162415,192.260590 560.162415,188.020035 
	C567.742004,192.799667 564.264160,200.921448 567.601074,205.965698 
	C568.335449,203.379181 569.052856,200.566086 569.969116,197.819382 
	C570.208740,197.101379 571.032410,196.145630 571.650024,196.097534 
	C572.395752,196.039459 573.692749,196.658493 573.914734,197.282181 
	C575.828369,202.658264 577.032715,208.121170 575.166809,213.681961 
	C574.675354,213.734970 574.183899,213.787979 573.692505,213.841003 
	C573.348816,211.405029 573.005188,208.969055 572.467773,205.160034 
	C570.970276,209.471909 569.855469,212.681885 568.550476,216.439545 
	C563.073364,213.121368 564.273254,207.504456 563.019104,202.957672 
	C562.573486,201.342239 562.288635,199.682465 561.280396,198.027618 
	C560.630371,198.012299 560.162415,197.994568 560.162415,197.994568 
z"/>
<path fill="#A9A8A7" opacity="1.000000" stroke="none" 
	d="
M512.834656,239.015823 
	C512.552795,246.566727 512.168335,254.115585 512.018921,261.669098 
	C511.877808,268.804413 511.983795,275.944580 511.594391,283.608002 
	C510.193359,284.425507 509.179047,284.717621 508.164734,285.009705 
	C508.456360,263.999847 508.746277,242.989975 509.042511,221.980209 
	C509.069153,220.091888 509.136597,218.204163 509.768707,216.439362 
	C510.569244,222.310104 510.660431,228.066803 511.077881,233.799759 
	C511.206909,235.571701 512.224121,237.278946 512.834656,239.015823 
z"/>
<path fill="#B2B2AF" opacity="1.000000" stroke="none" 
	d="
M508.096741,285.464386 
	C509.179047,284.717621 510.193359,284.425507 511.518616,284.071899 
	C511.546600,292.911163 511.302216,301.813385 510.968628,310.712250 
	C510.696533,317.970062 510.457611,325.235107 509.876465,332.470642 
	C509.750031,334.045166 508.229340,335.507751 507.350861,337.021942 
	C506.571655,335.607056 505.792480,334.192169 505.362305,332.281586 
	C505.502533,330.860229 505.293701,329.934601 505.084900,329.008942 
	C505.030579,326.988037 504.976257,324.967163 505.137268,322.184875 
	C506.225281,316.458099 507.306030,311.517273 507.894897,306.518494 
	C508.265930,303.369110 507.900787,300.132996 507.865875,296.935791 
	C507.920197,293.263550 507.974487,289.591278 508.096741,285.464386 
z"/>
<path fill="#8B8B8B" opacity="1.000000" stroke="none" 
	d="
M139.824081,218.015015 
	C140.211517,234.040359 140.598953,250.065720 140.587646,266.552490 
	C139.541061,267.018341 138.893204,267.022797 138.245331,267.027252 
	C137.673584,255.013123 137.110153,242.998566 136.516022,230.985550 
	C136.462097,229.895187 136.210693,228.814606 136.436447,227.196915 
	C137.822647,223.781235 138.823364,220.898132 139.824081,218.015015 
z"/>
<path fill="#8B8B8B" opacity="1.000000" stroke="none" 
	d="
M132.775635,161.968552 
	C132.502808,176.998917 132.229980,192.029297 131.576996,207.358948 
	C130.190460,205.101410 129.184097,202.544601 128.177734,199.987778 
	C128.431046,188.823425 128.652618,177.658157 128.982224,166.496048 
	C129.018890,165.254196 129.670563,164.030518 130.464661,162.378845 
	C131.520050,161.962357 132.147842,161.965454 132.775635,161.968552 
z"/>
<path fill="#9F9F9D" opacity="1.000000" stroke="none" 
	d="
M578.092590,238.969025 
	C578.700012,238.421402 579.800842,237.907013 579.840271,237.321121 
	C580.358704,229.623749 580.727295,221.916245 582.288818,213.745804 
	C582.858704,214.670792 583.958313,215.619797 583.917664,216.517105 
	C583.448181,226.872009 582.850037,237.221893 582.182678,247.566452 
	C581.984253,250.641449 581.727783,253.760391 581.000793,256.737823 
	C580.463440,258.938477 579.089844,259.387268 578.011597,256.060669 
	C577.801331,251.066345 581.865662,246.587265 577.202332,242.501175 
	C576.786560,242.136887 577.762817,240.184067 578.092590,238.969025 
z"/>
<path fill="#A9A8A7" opacity="1.000000" stroke="none" 
	d="
M383.967194,207.379303 
	C384.649017,207.881180 385.140991,208.740189 385.842346,209.810989 
	C384.831329,218.993286 383.610962,227.963791 382.413696,236.764618 
	C375.692688,237.794540 376.958984,232.547745 376.274323,230.049438 
	C375.127808,225.866135 375.368988,221.302521 375.428864,216.450531 
	C376.509827,216.007187 377.188049,216.012283 377.866302,216.017380 
	C378.374359,219.754318 378.882385,223.491272 379.390442,227.228210 
	C379.581390,227.285965 379.772308,227.343719 379.963257,227.401459 
	C381.234619,220.846466 382.505981,214.291458 383.967194,207.379303 
z"/>
<path fill="#A2A2A2" opacity="1.000000" stroke="none" 
	d="
M491.966156,254.900146 
	C492.303986,243.823547 492.583588,232.744720 493.010803,221.671570 
	C493.162445,217.740601 493.673065,213.823456 494.405090,209.515671 
	C495.586609,209.444885 496.382843,209.758438 497.179108,210.071991 
	C497.131622,210.506256 497.084106,210.940536 496.878448,211.802399 
	C496.591644,212.501770 496.636566,212.752655 496.855042,212.982666 
	C496.548798,226.654160 496.248474,240.325806 495.908630,253.996460 
	C495.898102,254.420242 495.477966,254.833847 494.730438,255.607513 
	C493.463470,255.608597 492.714813,255.254364 491.966156,254.900146 
z"/>
<path fill="#8F9091" opacity="1.000000" stroke="none" 
	d="
M514.000244,142.003159 
	C513.984924,149.355469 513.969604,156.707764 513.558777,164.524963 
	C512.500061,164.989258 511.836884,164.988678 511.173706,164.988098 
	C511.458923,146.011490 511.739899,127.034821 512.056458,108.058731 
	C512.063599,107.633392 512.474915,107.214775 513.138855,106.750702 
	C514.281677,110.655006 514.983337,114.601631 515.607300,118.870865 
	C515.019775,126.796715 514.510010,134.399933 514.000244,142.003159 
z"/>
<path fill="#737478" opacity="1.000000" stroke="none" 
	d="
M515.684937,118.548248 
	C514.983337,114.601631 514.281677,110.655006 513.372375,106.394081 
	C513.570374,102.402695 511.481598,98.349785 514.859802,94.451256 
	C515.724915,95.800423 516.766296,96.680573 516.816589,97.614090 
	C517.614624,112.437744 518.285828,127.268234 518.576172,142.557465 
	C517.500000,143.020569 516.833679,143.023376 516.167419,143.026184 
	C516.111084,141.307404 516.054749,139.588654 516.010620,136.970734 
	C515.910278,130.230469 515.797607,124.389359 515.684937,118.548248 
z"/>
<path fill="#818284" opacity="1.000000" stroke="none" 
	d="
M501.150696,182.018890 
	C500.784119,175.624557 500.417572,169.230240 500.372314,162.314545 
	C500.520294,160.865158 500.346985,159.937119 500.173645,159.009064 
	C500.117493,157.388092 500.149292,155.758148 499.985382,154.148148 
	C499.711639,151.459412 501.159729,148.320007 497.505737,146.460495 
	C496.768127,146.085114 497.180206,143.450623 497.440063,141.406403 
	C498.802490,140.176834 499.787048,139.398529 500.511688,138.825699 
	C501.313782,139.587067 502.067780,140.302795 502.821777,141.018524 
	C503.237213,154.371902 503.652649,167.725296 503.653534,181.523407 
	C502.542877,181.985046 501.846771,182.001968 501.150696,182.018890 
z"/>
<path fill="#B2B2AF" opacity="1.000000" stroke="none" 
	d="
M522.037903,265.507629 
	C521.500671,268.797607 520.915283,271.627167 520.081177,274.771057 
	C519.548401,274.379883 519.031006,273.679749 519.014587,272.968109 
	C518.653381,257.295746 518.347717,241.622086 518.469360,225.472046 
	C519.654663,224.973541 520.401978,224.951630 521.149414,224.929733 
	C521.097778,228.388260 520.924683,231.850037 521.017517,235.304672 
	C521.283936,245.220398 521.658020,255.133240 522.037903,265.507629 
z"/>
<path fill="#979797" opacity="1.000000" stroke="none" 
	d="
M130.944061,142.826462 
	C130.939453,142.135529 130.934845,141.444580 131.217133,140.378357 
	C132.160751,139.438812 132.817490,138.874542 133.474213,138.310272 
	C132.690292,137.875778 131.906387,137.441284 131.122467,137.006790 
	C131.089523,135.933365 131.056564,134.859940 131.339752,133.468384 
	C132.465683,133.750610 133.275513,134.350967 134.287750,134.639786 
	C135.043320,132.193359 135.596481,130.058441 136.149628,127.923531 
	C136.429016,128.467087 136.935104,129.002792 136.954208,129.555344 
	C137.317245,140.043701 137.622818,150.534027 137.556915,161.516174 
	C136.166656,162.316254 135.159836,162.624100 134.152985,162.931961 
	C134.117645,159.607040 134.082291,156.282104 134.014267,152.132248 
	C134.245926,148.431107 133.433655,146.799957 130.166199,148.008102 
	C130.118546,146.928864 130.070892,145.849640 130.246674,144.198425 
	C130.652420,143.374191 130.810394,143.107529 130.944061,142.826462 
z"/>
<path fill="#9F9F9D" opacity="1.000000" stroke="none" 
	d="
M521.115479,224.517365 
	C520.401978,224.951630 519.654663,224.973541 518.533630,225.008698 
	C517.795898,211.667130 517.431763,198.312332 517.405640,184.436218 
	C518.453857,183.621552 519.164124,183.328201 519.874329,183.034882 
	C520.241882,194.724121 520.609375,206.413345 520.835938,218.684265 
	C520.574890,219.538971 520.645569,219.777176 520.906982,219.980545 
	C520.965210,221.355362 521.023438,222.730179 521.115479,224.517365 
z"/>
<path fill="#868789" opacity="1.000000" stroke="none" 
	d="
M519.933594,182.567352 
	C519.164124,183.328201 518.453857,183.621552 517.461060,183.972351 
	C516.805420,170.671448 516.432373,157.313095 516.113403,143.490479 
	C516.833679,143.023376 517.500000,143.020569 518.499390,143.022034 
	C519.219299,156.050812 519.606079,169.075317 519.933594,182.567352 
z"/>
<path fill="#8F9091" opacity="1.000000" stroke="none" 
	d="
M101.054260,240.850952 
	C101.782257,234.718033 102.510254,228.585114 103.809105,222.434738 
	C105.182693,223.271866 105.985435,224.126465 106.788170,224.981049 
	C106.172005,233.618103 105.741058,242.275711 104.787155,250.875305 
	C104.590736,252.646027 102.442810,254.200287 101.194382,255.854324 
	C100.448929,253.863556 99.703476,251.872787 99.126709,249.181198 
	C99.881683,245.937241 100.467972,243.394089 101.054260,240.850952 
z"/>
<path fill="#B2B2AF" opacity="1.000000" stroke="none" 
	d="
M505.014069,249.085770 
	C505.014709,249.513916 505.015320,249.942062 504.682556,250.697235 
	C504.179901,251.039017 504.010651,251.053757 503.841400,251.068481 
	C503.218231,249.851242 502.084259,248.648392 502.049500,247.414597 
	C501.622650,232.260971 501.356720,217.102814 501.440643,201.661362 
	C502.214783,203.388000 502.502563,205.423264 503.007263,207.403244 
	C503.493713,209.311661 504.204163,211.162949 504.816223,213.039322 
	C504.874481,214.391907 504.932739,215.744507 504.975647,217.977310 
	C504.978210,228.933609 504.996124,239.009689 505.014069,249.085770 
z"/>
<path fill="#818284" opacity="1.000000" stroke="none" 
	d="
M151.901917,207.023819 
	C151.601608,206.021118 151.085587,205.029221 151.034714,204.014023 
	C150.577393,194.887939 150.201797,185.757751 149.534164,176.081909 
	C149.511505,173.022903 149.756897,170.510773 150.001129,167.999313 
	C150.000000,168.000000 149.997665,168.002518 150.459015,167.943909 
	C151.227356,167.841949 151.534348,167.798584 151.841324,167.755234 
	C152.197113,168.266037 152.835114,168.759720 152.867264,169.290131 
	C153.611206,181.565704 154.289352,193.845261 154.528717,206.584793 
	C153.352478,207.038284 152.627197,207.031052 151.901917,207.023819 
z"/>
<path fill="#737478" opacity="1.000000" stroke="none" 
	d="
M129.393890,274.773193 
	C128.363846,272.098480 127.552185,269.210785 127.081291,266.268494 
	C126.797646,264.496216 127.044258,262.639038 127.013062,260.349976 
	C127.045265,251.399216 127.116989,242.918533 127.759766,234.411224 
	C129.153839,235.248169 129.976852,236.111710 130.799881,236.975250 
	C130.451859,249.495911 130.103836,262.016571 129.393890,274.773193 
z"/>
<path fill="#B2B2AF" opacity="1.000000" stroke="none" 
	d="
M491.586273,254.750977 
	C492.714813,255.254364 493.463470,255.608597 494.531616,255.989120 
	C495.225281,262.817993 495.303528,269.577942 492.417786,276.293823 
	C487.684998,271.319702 486.494629,252.726959 490.730560,247.437607 
	C490.914703,250.210251 491.060547,252.406036 491.586273,254.750977 
z"/>
<path fill="#979797" opacity="1.000000" stroke="none" 
	d="
M533.059631,209.005524 
	C533.059631,209.005524 532.940369,208.619827 532.828003,208.204742 
	C532.573364,207.497498 532.381714,207.242416 532.140747,207.024429 
	C531.747375,202.456558 531.354065,197.888702 530.943054,193.115387 
	C529.805969,193.414932 528.644409,193.720932 526.450317,194.298950 
	C527.146118,188.977814 527.747925,184.376144 528.349670,179.774475 
	C529.157166,179.766495 529.964722,179.758530 530.772278,179.750565 
	C535.184570,188.623474 534.279419,198.671722 535.579346,208.570007 
	C534.463196,209.001190 533.761414,209.003357 533.059631,209.005524 
z"/>
<path fill="#9B9C9A" opacity="1.000000" stroke="none" 
	d="
M355.897949,197.600525 
	C355.066223,195.887421 354.303253,193.758774 353.325562,191.330811 
	C353.412476,188.963028 353.533783,186.844391 354.089386,184.846558 
	C354.381531,183.796127 355.433380,182.957016 356.142212,182.022491 
	C357.025879,182.801987 358.465973,183.445068 358.696289,184.384720 
	C359.659515,188.314178 360.451935,192.309219 360.941864,196.324783 
	C361.495178,200.859787 361.741699,205.438995 361.933624,210.006882 
	C361.986450,211.264160 361.367493,212.549652 361.056763,213.822189 
	C360.456238,213.829697 359.855743,213.837204 359.255219,213.844696 
	C358.523621,208.175034 357.791992,202.505386 357.283722,196.188675 
	C357.366089,194.700027 357.225128,193.858414 357.084167,193.016815 
	C357.084167,193.016815 356.952301,192.619064 356.898010,192.150162 
	C356.416840,191.442535 355.989990,191.203812 355.563141,190.965088 
	C355.669769,191.635971 355.776367,192.306854 355.882996,192.977737 
	C355.910889,194.380157 355.938751,195.782562 355.897949,197.600525 
z"/>
<path fill="#9F9F9D" opacity="1.000000" stroke="none" 
	d="
M554.086304,232.971130 
	C554.719116,231.780258 555.687134,230.652359 555.924805,229.387222 
	C556.801636,224.720779 557.436768,220.008911 558.826538,215.133331 
	C559.697021,214.952545 559.903687,214.952545 560.110352,214.952545 
	C560.064514,219.740707 560.253601,224.545898 559.907715,229.312286 
	C559.552856,234.202438 558.938599,239.112442 557.890076,243.893616 
	C557.495850,245.691177 555.563049,247.151291 554.179199,248.039429 
	C554.512878,245.303299 555.118713,243.311768 555.438416,241.275330 
	C555.619995,240.119125 555.512146,237.892563 555.230286,237.841919 
	C550.846741,237.054443 553.347229,234.825043 554.086304,232.971130 
z"/>
<path fill="#979797" opacity="1.000000" stroke="none" 
	d="
M377.934326,215.580780 
	C377.188049,216.012283 376.509827,216.007187 375.492493,216.010757 
	C375.109375,215.845001 375.065308,215.670563 375.256989,215.010864 
	C375.042206,213.689682 374.591675,212.853760 374.141144,212.017838 
	C374.092773,210.613663 374.044403,209.209488 374.221130,207.221664 
	C374.322449,206.097778 374.198730,205.557556 374.075012,205.017319 
	C374.075012,205.017319 373.943909,204.621063 373.825867,204.207581 
	C373.574615,203.502502 373.389404,203.248856 373.152222,203.033157 
	C372.869751,200.176880 372.587280,197.320602 372.072815,194.738846 
	C371.070557,193.210754 370.300293,191.408142 369.319519,189.318604 
	C369.076569,188.573990 369.044128,188.116287 369.394104,187.325317 
	C370.186493,186.992493 370.596466,186.992950 371.017456,187.300537 
	C371.279755,188.146484 371.531006,188.685303 371.782227,189.224121 
	C372.081512,188.961197 372.380829,188.698288 372.680176,188.435394 
	C372.117981,187.958786 371.555786,187.482178 370.969421,186.539551 
	C370.793793,185.155121 370.642365,184.236694 370.490906,183.318268 
	C370.894958,180.028137 372.471100,180.028778 373.782135,182.553864 
	C374.945099,184.793869 375.530975,187.443939 375.864319,189.979691 
	C376.438263,194.345886 376.618073,198.763901 376.753479,203.768158 
	C376.669983,204.911453 376.796295,205.446762 376.922607,205.982056 
	C376.969971,206.386276 377.017365,206.790497 377.176086,207.706284 
	C377.423645,208.508377 377.612976,208.758682 377.855438,208.968781 
	C377.904419,211.027252 377.953400,213.085724 377.934326,215.580780 
z"/>
<path fill="#9B9C9A" opacity="1.000000" stroke="none" 
	d="
M138.181213,267.471558 
	C138.893204,267.022797 139.541061,267.018341 140.512878,267.017181 
	C140.991867,267.594849 141.146927,268.169250 141.589615,268.830444 
	C142.652435,269.558807 143.427628,270.200378 144.487473,270.942078 
	C144.812607,272.087616 144.853073,273.133026 144.530991,274.735352 
	C144.393280,277.539368 144.618103,279.786377 144.842926,282.033417 
	C144.163971,285.352966 143.485016,288.672546 142.680969,292.603699 
	C136.995056,288.722565 139.549622,283.143036 138.269287,278.378540 
	C138.410248,277.257874 138.287918,276.627563 138.165588,275.997253 
	C138.149414,273.303436 138.133255,270.609650 138.181213,267.471558 
z"/>
<path fill="#929293" opacity="1.000000" stroke="none" 
	d="
M89.115677,199.468903 
	C90.203224,199.617493 91.229851,200.219208 92.540741,200.917084 
	C92.188683,210.699829 91.552368,220.386368 90.494270,230.526306 
	C89.101028,230.978958 88.129570,230.978226 87.158112,230.977509 
	C87.790329,220.625671 88.422546,210.273849 89.115677,199.468903 
z"/>
<path fill="#737478" opacity="1.000000" stroke="none" 
	d="
M134.074509,163.366486 
	C135.159836,162.624100 136.166656,162.316254 137.491394,161.975311 
	C138.191101,170.994247 138.572891,180.046295 138.589081,189.688995 
	C137.472397,191.523483 136.721298,192.767334 135.970200,194.011169 
	C135.655731,191.986908 135.164169,189.971909 135.057983,187.936768 
	C134.638382,179.894943 134.339600,171.846802 134.074509,163.366486 
z"/>
<path fill="#9B9C9A" opacity="1.000000" stroke="none" 
	d="
M512.912231,238.551819 
	C512.224121,237.278946 511.206909,235.571701 511.077881,233.799759 
	C510.660431,228.066803 510.569244,222.310104 510.086487,216.231445 
	C510.230103,206.896820 510.639557,197.893280 511.389282,188.449097 
	C512.101929,187.994263 512.474243,187.980057 512.909058,188.420959 
	C512.656311,192.303040 512.108459,195.729538 512.101074,199.157211 
	C512.095398,201.808914 512.766357,204.462082 513.136536,207.114594 
	C513.087646,217.439011 513.038757,227.763412 512.912231,238.551819 
z"/>
<path fill="#A4A4A4" opacity="1.000000" stroke="none" 
	d="
M479.023499,205.437164 
	C479.817596,206.921402 480.520294,208.819550 481.530670,210.865875 
	C480.922028,216.614395 480.131378,222.240173 479.006927,227.798416 
	C478.700256,229.314362 477.389587,230.627167 476.539673,232.033203 
	C475.537384,230.732361 474.152435,229.571899 473.612885,228.101257 
	C472.507965,225.089447 471.856750,221.911163 471.420105,218.400345 
	C472.496582,218.001907 473.171722,218.004547 473.846863,218.007187 
	C474.462402,219.968903 475.077972,221.930603 475.693512,223.892319 
	C475.972504,223.934906 476.251495,223.977493 476.530487,224.020096 
	C477.331055,217.963745 478.131592,211.907410 479.023499,205.437164 
z"/>
<path fill="#8B8B8B" opacity="1.000000" stroke="none" 
	d="
M158.958862,222.855835 
	C158.989609,221.815842 159.020325,220.775864 159.491013,219.355438 
	C160.878799,218.974594 161.826630,218.974182 162.774445,218.973770 
	C161.843292,226.357773 161.017960,233.758118 159.881409,241.110367 
	C159.681717,242.402084 158.177841,243.492203 157.276276,244.675415 
	C156.205078,243.373337 154.730103,242.220535 154.177826,240.726608 
	C153.640320,239.272675 154.047699,237.469391 154.426315,235.453583 
	C155.710709,235.161209 156.609009,235.234726 156.183044,235.199860 
	C157.199951,230.677704 158.079407,226.766769 158.958862,222.855835 
z"/>
<path fill="#9B9C9A" opacity="1.000000" stroke="none" 
	d="
M106.862076,224.547379 
	C105.985435,224.126465 105.182693,223.271866 104.165558,222.197769 
	C103.988617,219.944534 104.026093,217.910812 104.420837,215.321686 
	C104.554337,213.507736 104.330566,212.249191 104.106796,210.990631 
	C104.745575,207.220352 105.259056,203.422501 106.079712,199.692245 
	C106.450729,198.005844 107.432632,196.453827 108.137383,194.840851 
	C108.723618,194.842377 109.309860,194.843903 109.896095,194.845428 
	C110.589615,197.289444 111.283142,199.733475 112.047882,202.568573 
	C111.047958,204.501862 109.976814,206.044098 109.002930,207.878387 
	C108.378784,213.484879 107.657387,218.799301 106.862076,224.547379 
z"/>
<path fill="#9F9F9D" opacity="1.000000" stroke="none" 
	d="
M473.925446,217.620758 
	C473.171722,218.004547 472.496582,218.001907 471.483887,218.003113 
	C470.647766,216.468430 470.149170,214.929901 469.649139,213.386887 
	C462.447510,219.122070 462.589508,215.457306 459.121429,207.734573 
	C458.261322,208.812988 457.529022,209.731186 456.796692,210.649384 
	C456.348450,210.582260 455.900238,210.515152 455.451996,210.448029 
	C456.036652,207.620605 456.621277,204.793167 457.275879,201.627426 
	C463.272217,202.985458 462.199524,208.709717 464.797089,211.778793 
	C469.046722,207.198013 471.085358,207.720367 473.062225,213.979813 
	C473.402191,215.056412 473.691345,216.149078 473.925446,217.620758 
z"/>
<path fill="#818284" opacity="1.000000" stroke="none" 
	d="
M130.859100,236.511749 
	C129.976852,236.111710 129.153839,235.248169 128.114136,234.160095 
	C127.944550,222.929657 127.991623,211.923752 128.108215,200.452820 
	C129.184097,202.544601 130.190460,205.101410 131.515381,207.821716 
	C131.528732,217.339554 131.223526,226.693893 130.859100,236.511749 
z"/>
<path fill="#8F9091" opacity="1.000000" stroke="none" 
	d="
M151.871323,167.446289 
	C151.534348,167.798584 151.227356,167.841949 150.435532,167.780579 
	C149.792618,167.545883 149.634521,167.415924 149.476410,167.285980 
	C149.651703,167.523529 149.826981,167.761078 150.002274,167.998627 
	C149.756897,170.510773 149.511505,173.022903 149.180725,175.863831 
	C149.056137,180.492294 149.016953,184.791977 148.540100,189.547882 
	C147.130966,190.005936 146.159531,190.007751 145.188080,190.009583 
	C145.801346,181.521423 146.519791,173.038818 146.970123,164.542023 
	C147.124969,161.620544 148.686600,161.886810 150.951462,163.022324 
	C151.411331,164.098969 151.521362,164.396301 151.631409,164.693634 
	C151.721375,165.508194 151.811356,166.322769 151.871323,167.446289 
z"/>
<path fill="#9F9F9D" opacity="1.000000" stroke="none" 
	d="
M552.226318,217.668747 
	C552.453796,217.685730 552.681335,217.702728 552.603149,217.816605 
	C551.254333,216.616608 550.211304,215.319702 549.168274,214.022797 
	C548.845520,210.970688 548.522766,207.918564 548.041077,203.362991 
	C547.026611,206.035034 546.549988,207.290314 545.994263,208.754135 
	C543.330505,205.683701 543.511047,198.267731 546.314148,196.435089 
	C548.719055,194.862793 550.456482,196.383240 550.841492,198.751144 
	C551.726379,204.193085 552.268616,209.690765 552.736206,215.849884 
	C552.423706,216.912231 552.325012,217.290497 552.226318,217.668747 
z"/>
<path fill="#929293" opacity="1.000000" stroke="none" 
	d="
M95.984688,200.488831 
	C96.691788,198.451096 97.443794,196.878387 98.493332,195.163849 
	C99.513054,205.057510 100.235237,215.093002 100.435486,225.574402 
	C99.006088,226.112000 98.098610,226.203674 97.191139,226.295364 
	C96.803955,217.848190 96.416771,209.401016 95.984688,200.488831 
z"/>
<path fill="#818284" opacity="1.000000" stroke="none" 
	d="
M136.003082,194.478149 
	C136.721298,192.767334 137.472397,191.523483 138.511673,190.153488 
	C139.190308,199.066177 139.580750,208.105042 139.897644,217.579453 
	C138.823364,220.898132 137.822647,223.781235 136.498749,226.837891 
	C136.129059,216.322678 136.082520,205.633896 136.003082,194.478149 
z"/>
<path fill="#9F9F9D" opacity="1.000000" stroke="none" 
	d="
M158.529190,222.909454 
	C158.079407,226.766769 157.199951,230.677704 156.183044,235.199860 
	C156.609009,235.234726 155.710709,235.161209 154.504730,235.029816 
	C154.197037,234.971939 154.055450,234.545120 153.914948,234.115845 
	C153.600128,233.434357 153.401764,233.202744 153.179337,232.991730 
	C153.120377,229.974258 153.061401,226.956787 153.155060,223.188446 
	C152.945129,219.942841 152.582550,217.448105 152.219971,214.953354 
	C152.165680,212.600082 152.111389,210.246796 151.979523,207.458679 
	C152.627197,207.031052 153.352478,207.038284 154.440536,207.045258 
	C155.217957,211.721939 155.555008,216.408493 156.130432,221.065582 
	C156.217270,221.768433 157.415421,222.334000 158.529190,222.909454 
z"/>
<path fill="#B2B2AF" opacity="1.000000" stroke="none" 
	d="
M549.093140,214.449127 
	C550.211304,215.319702 551.254333,216.616608 552.595337,218.158752 
	C553.257080,222.955002 553.620789,227.505981 554.035400,232.514038 
	C553.347229,234.825043 550.846741,237.054443 555.230286,237.841919 
	C555.512146,237.892563 555.619995,240.119125 555.438416,241.275330 
	C555.118713,243.311768 554.512878,245.303299 553.989014,247.736420 
	C552.963745,244.181442 551.609802,240.252686 551.069641,236.215057 
	C550.122803,229.137039 549.674927,221.992264 549.093140,214.449127 
z"/>
<path fill="#929293" opacity="1.000000" stroke="none" 
	d="
M504.897705,212.574463 
	C504.204163,211.162949 503.493713,209.311661 503.007263,207.403244 
	C502.502563,205.423264 502.214783,203.388000 501.500061,201.207230 
	C501.124512,195.007477 501.081116,188.977386 501.094177,182.483093 
	C501.846771,182.001968 502.542877,181.985046 503.586548,181.988434 
	C504.282471,192.042374 504.630859,202.075989 504.897705,212.574463 
z"/>
<path fill="#9B9C9A" opacity="1.000000" stroke="none" 
	d="
M162.847961,218.555313 
	C161.826630,218.974182 160.878799,218.974594 159.575500,218.974487 
	C160.155380,212.762161 160.978531,206.529068 162.148621,200.361786 
	C162.321518,199.450424 164.135437,198.850403 165.706177,198.310562 
	C166.398972,198.709808 166.598648,198.877518 166.821274,199.017914 
	C167.160599,199.667557 167.499924,200.317200 167.507401,201.568298 
	C166.777313,203.138962 166.379089,204.108185 165.980865,205.077408 
	C164.961090,209.430557 163.941284,213.783707 162.847961,218.555313 
z"/>
<path fill="#C1C1BD" opacity="1.000000" stroke="none" 
	d="
M507.656738,296.948853 
	C507.900787,300.132996 508.265930,303.369110 507.894897,306.518494 
	C507.306030,311.517273 506.225281,316.458099 505.097595,321.753387 
	C504.562500,317.788971 504.173065,313.498230 504.032684,309.199341 
	C503.888519,304.784943 503.987640,300.362610 504.291260,295.441650 
	C504.774597,294.943298 504.947021,294.947052 505.099426,295.279358 
	C505.349121,296.423340 505.618835,297.238739 505.888550,298.054138 
	C506.270630,297.666046 506.652710,297.277954 507.034790,296.889893 
	C507.034790,296.889862 507.447601,296.961884 507.656738,296.948853 
z"/>
<path fill="#8F9091" opacity="1.000000" stroke="none" 
	d="
M210.971985,213.581451 
	C210.227814,214.018036 209.551422,214.020172 208.536621,214.025177 
	C207.472305,210.002167 206.746384,205.976273 205.980942,201.157990 
	C204.938095,199.226120 203.934738,198.086655 202.931396,196.947205 
	C203.793381,195.972595 204.655380,194.998001 205.517365,194.023407 
	C206.577438,195.095215 208.327240,196.027237 208.577713,197.263107 
	C209.640778,202.508606 210.259003,207.844269 210.971985,213.581451 
z"/>
<path fill="#737478" opacity="1.000000" stroke="none" 
	d="
M502.895325,140.572739 
	C502.067780,140.302795 501.313782,139.587067 500.511688,138.825699 
	C499.787048,139.398529 498.802490,140.176834 497.505066,140.987701 
	C497.142456,139.291260 497.092712,137.562225 497.447937,135.307281 
	C498.329437,133.245361 499.041199,131.738235 499.234039,130.167389 
	C499.653595,126.750237 499.808502,123.300598 500.071594,119.864235 
	C500.693726,120.759842 501.782166,121.615974 501.861908,122.557495 
	C502.356750,128.403336 502.625244,134.268326 502.895325,140.572739 
z"/>
<path fill="#A2A2A2" opacity="1.000000" stroke="none" 
	d="
M533.000000,209.424164 
	C533.761414,209.003357 534.463196,209.001190 535.515869,209.005081 
	C536.430237,211.489548 536.993774,213.967941 537.801453,217.520203 
	C540.063354,215.059082 541.702271,213.275803 544.507080,210.223907 
	C544.311646,212.853561 544.728638,214.676132 544.007080,215.492645 
	C542.182373,217.557541 539.950623,219.342087 537.598816,220.774033 
	C537.256165,220.982651 534.812866,218.839645 534.307251,217.436783 
	C533.447449,215.051132 533.355164,212.388840 533.000000,209.424164 
z"/>
<path fill="#8B8B8B" opacity="1.000000" stroke="none" 
	d="
M97.115677,226.663116 
	C98.098610,226.203674 99.006088,226.112000 100.369560,226.004501 
	C100.880661,230.638977 100.935768,235.289246 101.022568,240.395233 
	C100.467972,243.394089 99.881683,245.937241 99.055290,248.781143 
	C98.541252,248.715439 98.045906,248.360458 98.026192,247.980774 
	C97.663605,240.999237 97.357933,234.014740 97.115677,226.663116 
z"/>
<path fill="#A2A2A2" opacity="1.000000" stroke="none" 
	d="
M486.099426,213.465729 
	C486.833710,213.012024 487.500000,213.010696 488.499390,213.011414 
	C490.044800,219.578766 490.733643,226.139908 489.290527,232.684052 
	C488.673615,232.731277 488.056671,232.778503 487.439758,232.825729 
	C486.970306,226.523178 486.500854,220.220642 486.099426,213.465729 
z"/>
<path fill="#929293" opacity="1.000000" stroke="none" 
	d="
M494.795410,187.884079 
	C494.868378,184.548294 494.941406,181.212509 495.427368,177.427338 
	C496.507965,176.977112 497.175598,176.976273 497.843201,176.975433 
	C497.912689,178.057831 497.982208,179.140244 497.882904,180.728271 
	C497.562592,181.496429 497.613861,181.741119 497.867859,181.967987 
	C497.908844,189.010422 497.949829,196.052841 497.578064,203.373993 
	C496.769958,201.276871 496.342987,198.905731 495.987549,196.523926 
	C495.558472,193.648712 495.190063,190.764435 494.795410,187.884079 
z"/>
<path fill="#B2B2AF" opacity="1.000000" stroke="none" 
	d="
M578.042969,238.537216 
	C577.762817,240.184067 576.786560,242.136887 577.202332,242.501175 
	C581.865662,246.587265 577.801331,251.066345 577.980957,255.727386 
	C574.635742,248.870911 574.694397,241.184082 575.338989,233.454727 
	C575.385864,232.892944 576.394287,232.411331 577.993347,230.933319 
	C577.993347,234.100723 577.993347,236.103058 578.042969,238.537216 
z"/>
<path fill="#9B9C9A" opacity="1.000000" stroke="none" 
	d="
M202.956207,196.960510 
	C203.934738,198.086655 204.938095,199.226120 205.956711,200.729004 
	C205.057739,204.826431 204.143478,208.560440 203.036560,212.649017 
	C202.092514,213.070969 201.341125,213.138336 200.373077,213.110199 
	C200.786728,208.287445 201.417053,203.560196 202.268051,198.253845 
	C202.697662,197.456467 202.854431,197.205612 202.959030,196.922150 
	C202.959030,196.922150 202.981003,196.973816 202.956207,196.960510 
z"/>
<path fill="#868789" opacity="1.000000" stroke="none" 
	d="
M512.846619,187.965866 
	C512.474243,187.980057 512.101929,187.994263 511.450195,188.016602 
	C511.122925,180.655411 511.074982,173.286057 511.100403,165.452393 
	C511.836884,164.988678 512.500061,164.989258 513.494751,164.988953 
	C513.869568,169.051605 513.912842,173.115158 513.596802,177.901245 
	C513.107178,181.737793 512.976929,184.851837 512.846619,187.965866 
z"/>
<path fill="#A9A8A7" opacity="1.000000" stroke="none" 
	d="
M505.119446,294.950806 
	C504.947021,294.947052 504.774597,294.943298 504.346191,294.976624 
	C504.035706,292.661530 503.981262,290.309265 504.147339,287.183167 
	C504.939758,281.597565 505.511597,276.785797 506.083435,271.974030 
	C506.387878,276.566101 506.757050,281.155182 506.972626,285.751404 
	C507.102570,288.522339 506.993652,291.304443 506.629272,294.538574 
	C505.884125,294.980682 505.501801,294.965729 505.119446,294.950806 
z"/>
<path fill="#A9A8A7" opacity="1.000000" stroke="none" 
	d="
M494.453430,188.153320 
	C495.190063,190.764435 495.558472,193.648712 495.987549,196.523926 
	C496.342987,198.905731 496.769958,201.276871 497.499603,203.838303 
	C497.835999,205.891174 497.838013,207.758453 497.509583,209.848877 
	C496.382843,209.758438 495.586609,209.444885 494.476685,209.062866 
	C494.145813,202.137115 494.128632,195.279831 494.453430,188.153320 
z"/>
<path fill="#A9A8A7" opacity="1.000000" stroke="none" 
	d="
M503.895172,251.487335 
	C504.010651,251.053757 504.179901,251.039017 504.603516,251.008606 
	C505.239899,257.030029 505.621918,263.067139 505.580139,269.559387 
	C504.489319,270.017883 503.822296,270.021179 503.155334,270.024475 
	C503.419861,263.985077 503.684387,257.945618 503.895172,251.487335 
z"/>
<path fill="#B2B2AF" opacity="1.000000" stroke="none" 
	d="
M363.740540,232.601685 
	C363.276794,234.056076 362.126251,235.945374 362.300873,236.077026 
	C366.861053,239.515121 363.396179,243.016983 362.313873,246.721619 
	C361.573883,240.748428 360.985565,234.528687 360.573517,228.297302 
	C360.519348,227.478287 361.366852,226.599640 362.372345,224.609009 
	C362.981659,228.178284 363.326447,230.197922 363.740540,232.601685 
z"/>
<path fill="#A9A8A7" opacity="1.000000" stroke="none" 
	d="
M497.898193,176.568710 
	C497.175598,176.976273 496.507965,176.977112 495.506531,176.975815 
	C495.172729,170.350327 495.172729,163.726959 495.172729,157.103607 
	C496.099548,157.087799 497.026367,157.071991 497.953186,157.056183 
	C497.953186,163.424789 497.953186,169.793381 497.898193,176.568710 
z"/>
<path fill="#979797" opacity="1.000000" stroke="none" 
	d="
M145.121613,190.453308 
	C146.159531,190.007751 147.130966,190.005936 148.466705,190.006607 
	C148.536896,195.417770 148.242813,200.826431 147.896347,206.603851 
	C147.006042,204.508545 146.168121,202.044510 145.103195,199.266479 
	C144.935837,196.267365 144.995483,193.582214 145.121613,190.453308 
z"/>
<path fill="#9F9F9D" opacity="1.000000" stroke="none" 
	d="
M130.099548,148.467926 
	C133.433655,146.799957 134.245926,148.431107 133.982544,151.679688 
	C133.634598,155.065689 133.285706,158.079315 132.856232,161.530762 
	C132.147842,161.965454 131.520050,161.962357 130.578293,161.961868 
	C130.187180,157.618896 130.110031,153.273331 130.099548,148.467926 
z"/>
<path fill="#F7F8F5" opacity="1.000000" stroke="none" 
	d="
M515.607300,118.870865 
	C515.797607,124.389359 515.910278,130.230469 516.011475,136.540070 
	C515.580078,138.600449 515.160095,140.192307 514.370117,141.893661 
	C514.510010,134.399933 515.019775,126.796715 515.607300,118.870865 
z"/>
<path fill="#F7F8F5" opacity="1.000000" stroke="none" 
	d="
M512.909058,188.420959 
	C512.976929,184.851837 513.107178,181.737793 513.552734,178.370178 
	C513.869141,187.621902 513.870422,197.127197 513.504089,206.873550 
	C512.766357,204.462082 512.095398,201.808914 512.101074,199.157211 
	C512.108459,195.729538 512.656311,192.303040 512.909058,188.420959 
z"/>
<path fill="#C1C1BD" opacity="1.000000" stroke="none" 
	d="
M503.094543,270.486633 
	C503.822296,270.021179 504.489319,270.017883 505.489807,270.021057 
	C505.870239,270.461334 505.917206,270.895111 506.023804,271.651459 
	C505.511597,276.785797 504.939758,281.597565 504.115540,286.743835 
	C503.586700,281.701843 503.310242,276.325317 503.094543,270.486633 
z"/>
<path fill="#818284" opacity="1.000000" stroke="none" 
	d="
M499.856659,119.548477 
	C499.808502,123.300598 499.653595,126.750237 499.234039,130.167389 
	C499.041199,131.738235 498.329437,133.245361 497.521606,134.880280 
	C497.438507,130.095566 497.647888,125.209122 498.006195,120.333626 
	C498.035950,119.928787 499.072815,119.597946 499.856659,119.548477 
z"/>
<path fill="#8B8B8B" opacity="1.000000" stroke="none" 
	d="
M136.096344,127.514114 
	C135.596481,130.058441 135.043320,132.193359 134.233704,134.231293 
	C133.354050,130.099457 132.730865,126.064613 132.107697,122.029770 
	C134.290482,119.730789 135.301361,121.428658 135.892563,123.321236 
	C136.255951,124.484543 136.013474,125.837105 136.096344,127.514114 
z"/>
<path fill="#F7F8F5" opacity="1.000000" stroke="none" 
	d="
M505.396973,248.866852 
	C504.996124,239.009689 504.978210,228.933609 504.987793,218.383820 
	C505.347717,218.564804 505.969910,219.219940 505.968933,219.874161 
	C505.954681,229.465500 505.857422,239.056717 505.396973,248.866852 
z"/>
<path fill="#818284" opacity="1.000000" stroke="none" 
	d="
M87.088531,231.411926 
	C88.129570,230.978226 89.101028,230.978958 90.436775,230.975723 
	C90.796982,233.508896 90.792900,236.046036 90.434219,238.803009 
	C89.216034,238.574600 88.352448,238.126358 87.321129,237.834076 
	C87.108574,235.942169 87.063766,233.894272 87.088531,231.411926 
z"/>
<path fill="#9F9F9D" opacity="1.000000" stroke="none" 
	d="
M132.023010,122.438736 
	C132.730865,126.064613 133.354050,130.099457 134.031281,134.542816 
	C133.275513,134.350967 132.465683,133.750610 131.411316,133.071365 
	C131.423950,129.610870 131.681137,126.229286 132.023010,122.438736 
z"/>
<path fill="#929293" opacity="1.000000" stroke="none" 
	d="
M81.007744,194.530533 
	C79.612450,195.590225 78.184669,196.282654 76.462029,196.986115 
	C76.585030,195.360825 77.002884,193.724487 77.658737,191.156158 
	C79.121986,192.482880 80.048622,193.323059 81.007744,194.530533 
z"/>
<path fill="#818284" opacity="1.000000" stroke="none" 
	d="
M165.984970,205.441666 
	C166.379089,204.108185 166.777313,203.138962 167.508087,201.940399 
	C168.554047,203.256226 169.267456,204.801437 169.890808,206.687546 
	C168.997696,207.573044 168.194656,208.117645 167.156494,208.845123 
	C166.610580,207.953979 166.299835,206.879959 165.984970,205.441666 
z"/>
<path fill="#818284" opacity="1.000000" stroke="none" 
	d="
M152.122711,215.376816 
	C152.582550,217.448105 152.945129,219.942841 153.069763,222.744598 
	C152.563019,220.634491 152.294235,218.217392 152.122711,215.376816 
z"/>
<path fill="#818284" opacity="1.000000" stroke="none" 
	d="
M144.920898,281.595886 
	C144.618103,279.786377 144.393280,277.539368 144.477814,275.124878 
	C144.857758,277.024384 144.928299,279.091400 144.920898,281.595886 
z"/>
<path fill="#9F9F9D" opacity="1.000000" stroke="none" 
	d="
M131.042633,137.294403 
	C131.906387,137.441284 132.690292,137.875778 133.474213,138.310272 
	C132.817490,138.874542 132.160751,139.438812 131.161026,140.037445 
	C130.866287,139.241867 130.914536,138.411942 131.042633,137.294403 
z"/>
<path fill="#818284" opacity="1.000000" stroke="none" 
	d="
M89.347839,247.825607 
	C89.079384,246.744766 89.136429,245.482574 89.480392,244.095505 
	C89.735992,245.195160 89.704666,246.419724 89.347839,247.825607 
z"/>
<path fill="#929293" opacity="1.000000" stroke="none" 
	d="
M89.619354,191.160538 
	C89.870346,192.224167 89.809074,193.481140 89.458748,194.860992 
	C89.215492,193.773895 89.261284,192.563873 89.619354,191.160538 
z"/>
<path fill="#8F9091" opacity="1.000000" stroke="none" 
	d="
M104.052094,211.392120 
	C104.330566,212.249191 104.554337,213.507736 104.491753,214.891388 
	C104.136063,213.942184 104.066727,212.867889 104.052094,211.392120 
z"/>
<path fill="#B2B2AF" opacity="1.000000" stroke="none" 
	d="
M505.099426,295.279388 
	C505.501801,294.965729 505.884125,294.980682 506.554413,295.002502 
	C506.894531,295.425873 506.946716,295.842316 507.016876,296.574341 
	C506.652710,297.277954 506.270630,297.666046 505.888550,298.054138 
	C505.618835,297.238739 505.349121,296.423340 505.099426,295.279388 
z"/>
<path fill="#929293" opacity="1.000000" stroke="none" 
	d="
M560.098022,198.409332 
	C560.162415,197.994568 560.630371,198.012299 560.864136,198.025696 
	C560.991089,200.092499 560.884277,202.145905 560.777527,204.199310 
	C560.529541,204.192764 560.281616,204.186218 560.033630,204.179672 
	C560.033630,202.394485 560.033630,200.609299 560.098022,198.409332 
z"/>
<path fill="#C1C1BD" opacity="1.000000" stroke="none" 
	d="
M505.034027,329.380005 
	C505.293701,329.934601 505.502533,330.860229 505.436646,331.885071 
	C505.102356,331.239868 505.042786,330.495483 505.034027,329.380005 
z"/>
<path fill="#868789" opacity="1.000000" stroke="none" 
	d="
M500.106934,159.378616 
	C500.346985,159.937119 500.520294,160.865158 500.423553,161.892151 
	C500.115723,161.243469 500.077942,160.495819 500.106934,159.378616 
z"/>
<path fill="#A4A4A4" opacity="1.000000" stroke="none" 
	d="
M370.184204,183.502945 
	C370.642365,184.236694 370.793793,185.155121 370.972626,186.536758 
	C371.000000,186.999969 371.006409,186.993393 371.006409,186.993408 
	C370.596466,186.992950 370.186493,186.992493 369.469116,186.988327 
	C369.400299,185.885620 369.638885,184.786621 370.184204,183.502945 
z"/>
<path fill="#929293" opacity="1.000000" stroke="none" 
	d="
M560.062683,214.556213 
	C559.903687,214.952545 559.697021,214.952545 559.180420,214.948242 
	C558.962830,213.309357 559.055176,211.674744 559.147583,210.040146 
	C559.436707,210.012238 559.725891,209.984314 560.015015,209.956406 
	C560.015015,211.357574 560.015015,212.758728 560.062683,214.556213 
z"/>
<path fill="#A9A8A7" opacity="1.000000" stroke="none" 
	d="
M374.075592,212.343231 
	C374.591675,212.853760 375.042206,213.689682 375.304138,214.745132 
	C374.747040,214.199326 374.378540,213.433990 374.075592,212.343231 
z"/>
<path fill="#A9A8A7" opacity="1.000000" stroke="none" 
	d="
M355.988464,192.751648 
	C355.776367,192.306854 355.669769,191.635971 355.563141,190.965088 
	C355.989990,191.203812 356.416840,191.442535 356.889038,191.940842 
	C356.934418,192.200424 356.436829,192.163071 356.436829,192.163071 
	C356.436829,192.163071 356.093933,192.525558 355.988464,192.751648 
z"/>
<path fill="#A9A8A7" opacity="1.000000" stroke="none" 
	d="
M384.564117,204.069061 
	C384.771576,204.569855 384.700562,205.207367 384.388733,205.919128 
	C384.193848,205.397507 384.239746,204.801651 384.564117,204.069061 
z"/>
<path fill="#8B8B8B" opacity="1.000000" stroke="none" 
	d="
M138.079987,276.328552 
	C138.287918,276.627563 138.410248,277.257874 138.330093,277.952301 
	C138.083206,277.564240 138.038803,277.112061 138.079987,276.328552 
z"/>
<path fill="#A9A8A7" opacity="1.000000" stroke="none" 
	d="
M357.020813,193.383835 
	C357.225128,193.858414 357.366089,194.700027 357.319458,195.752487 
	C357.073730,195.225845 357.015594,194.488358 357.020813,193.383835 
z"/>
<path fill="#A9A8A7" opacity="1.000000" stroke="none" 
	d="
M374.018860,205.341705 
	C374.198730,205.557556 374.322449,206.097778 374.276428,206.802887 
	C374.058716,206.533859 374.010742,206.099960 374.018860,205.341705 
z"/>
<path fill="#A9A8A7" opacity="1.000000" stroke="none" 
	d="
M376.976776,205.658218 
	C376.796295,205.446762 376.669983,204.911453 376.706055,204.208023 
	C376.922607,204.471390 376.976776,204.902878 376.976776,205.658218 
z"/>
<path fill="#818284" opacity="1.000000" stroke="none" 
	d="
M86.077866,253.220963 
	C86.023438,252.989777 86.492744,252.964722 86.727524,252.974152 
	C86.685631,253.139786 86.408958,253.295975 86.077866,253.220963 
z"/>
<path fill="#8F9091" opacity="1.000000" stroke="none" 
	d="
M202.709656,197.000610 
	C202.854431,197.205612 202.697662,197.456467 202.330246,197.831787 
	C202.267944,197.685593 202.364120,197.382324 202.709656,197.000610 
z"/>
<path fill="#B2B2AF" opacity="1.000000" stroke="none" 
	d="
M520.024780,279.253784 
	C520.331055,279.216522 520.402893,279.463593 520.201416,279.864014 
	C520.114563,279.977692 519.976685,279.498444 520.024780,279.253784 
z"/>
<path fill="#A9A8A7" opacity="1.000000" stroke="none" 
	d="
M373.135681,203.298096 
	C373.389404,203.248856 373.574615,203.502502 373.827301,203.998886 
	C373.670868,203.990128 373.394989,203.776581 373.135681,203.298096 
z"/>
<path fill="#A2A2A2" opacity="1.000000" stroke="none" 
	d="
M532.120850,207.293427 
	C532.381714,207.242416 532.573364,207.497498 532.827209,208.002884 
	C532.659485,207.998230 532.380249,207.780334 532.120850,207.293427 
z"/>
<path fill="#A9A8A7" opacity="1.000000" stroke="none" 
	d="
M377.871338,208.702850 
	C377.612976,208.758682 377.423645,208.508377 377.168091,208.013031 
	C377.328247,208.017792 377.607727,208.227356 377.871338,208.702850 
z"/>
<path fill="#B2B2AF" opacity="1.000000" stroke="none" 
	d="
M520.950562,219.742188 
	C520.645569,219.777176 520.574890,219.538971 520.777222,219.152084 
	C520.859558,219.038239 520.994202,219.503815 520.950562,219.742188 
z"/>
<path fill="#9F9F9D" opacity="1.000000" stroke="none" 
	d="
M130.704834,142.938324 
	C130.810394,143.107529 130.652420,143.374191 130.312317,143.797363 
	C130.258209,143.662262 130.361893,143.356232 130.704834,142.938324 
z"/>
<path fill="#B2B2AF" opacity="1.000000" stroke="none" 
	d="
M552.566223,217.558777 
	C552.325012,217.290497 552.423706,216.912231 552.685852,216.289764 
	C552.868225,216.513290 552.887146,216.981049 552.566223,217.558777 
z"/>
<path fill="#A9A8A7" opacity="1.000000" stroke="none" 
	d="
M497.931396,181.735138 
	C497.613861,181.741119 497.562592,181.496429 497.812378,181.130463 
	C497.910675,181.027008 497.994965,181.502304 497.931396,181.735138 
z"/>
<path fill="#818284" opacity="1.000000" stroke="none" 
	d="
M166.855133,198.754486 
	C166.598648,198.877518 166.398972,198.709808 166.105011,198.357635 
	C166.288177,198.297363 166.588593,198.394226 166.855133,198.754486 
z"/>
<path fill="#8B8B8B" opacity="1.000000" stroke="none" 
	d="
M153.134842,233.258820 
	C153.401764,233.202744 153.600128,233.434357 153.866119,233.896362 
	C153.668625,233.912750 153.379486,233.719330 153.134842,233.258820 
z"/>
<path fill="#A9A8A7" opacity="1.000000" stroke="none" 
	d="
M496.928284,212.744293 
	C496.636566,212.752655 496.591644,212.501770 496.810852,212.123657 
	C496.901398,212.017303 497.001526,212.505905 496.928284,212.744293 
z"/>
<path fill="#818284" opacity="1.000000" stroke="none" 
	d="
M151.766037,164.435699 
	C151.521362,164.396301 151.411331,164.098969 151.176147,163.342865 
	C151.334198,163.315323 151.617432,163.746536 151.766037,164.435699 
z"/>
<path fill="#A4A4A4" opacity="1.000000" stroke="none" 
	d="
M370.996796,187.002777 
	C371.555786,187.482178 372.117981,187.958786 372.680176,188.435394 
	C372.380829,188.698288 372.081512,188.961197 371.782227,189.224121 
	C371.531006,188.685303 371.279755,188.146484 371.017456,187.300522 
	C371.006409,186.993393 371.000000,186.999969 370.996796,187.002777 
z"/>
<path fill="#818284" opacity="1.000000" stroke="none" 
	d="
M150.001129,167.999313 
	C149.826981,167.761078 149.651703,167.523529 149.476410,167.285980 
	C149.634521,167.415924 149.792618,167.545883 149.974182,167.839172 
	C149.997665,168.002518 150.000000,168.000000 150.001129,167.999313 
z"/>
</svg>